<svg width="63" height="63" viewBox="0 0 63 63" fill="none" xmlns="http://www.w3.org/2000/svg">
<rect x="11.75" y="0.75" width="50.5" height="34.5" rx="1.25" fill="white" stroke="#EA5250" stroke-width="1.5"/>
<mask id="path-2-inside-1_1027_37" fill="white">
<path fill-rule="evenodd" clip-rule="evenodd" d="M2 9C0.895431 9 0 9.89543 0 11V45C0 46.1046 0.895429 47 2 47H10L10 60.1744C10 61.8479 11.9328 62.7813 13.2435 61.7408L31.8121 47H52C53.1046 47 54 46.1046 54 45V11C54 9.89543 53.1046 9 52 9H2Z"/>
</mask>
<path fill-rule="evenodd" clip-rule="evenodd" d="M2 9C0.895431 9 0 9.89543 0 11V45C0 46.1046 0.895429 47 2 47H10L10 60.1744C10 61.8479 11.9328 62.7813 13.2435 61.7408L31.8121 47H52C53.1046 47 54 46.1046 54 45V11C54 9.89543 53.1046 9 52 9H2Z" fill="white"/>
<path d="M10 47L11.5 47L11.5 45.5H10V47ZM10 60.1744L8.5 60.1744V60.1744H10ZM13.2435 61.7408L12.3109 60.566L12.3109 60.566L13.2435 61.7408ZM31.8121 47V45.5H31.2891L30.8795 45.8252L31.8121 47ZM1.5 11C1.5 10.7239 1.72386 10.5 2 10.5V7.5C0.0670043 7.5 -1.5 9.067 -1.5 11H1.5ZM1.5 45V11H-1.5V45H1.5ZM2 45.5C1.72386 45.5 1.5 45.2761 1.5 45H-1.5C-1.5 46.933 0.0670005 48.5 2 48.5V45.5ZM10 45.5H2V48.5H10V45.5ZM11.5 60.1744L11.5 47L8.5 47L8.5 60.1744L11.5 60.1744ZM12.3109 60.566C11.9832 60.8261 11.5 60.5928 11.5 60.1744H8.5C8.5 63.1031 11.8824 64.7365 14.1762 62.9156L12.3109 60.566ZM30.8795 45.8252L12.3109 60.566L14.1762 62.9156L32.7448 48.1748L30.8795 45.8252ZM52 45.5H31.8121V48.5H52V45.5ZM52.5 45C52.5 45.2761 52.2761 45.5 52 45.5V48.5C53.933 48.5 55.5 46.933 55.5 45H52.5ZM52.5 11V45H55.5V11H52.5ZM52 10.5C52.2761 10.5 52.5 10.7239 52.5 11H55.5C55.5 9.067 53.933 7.5 52 7.5V10.5ZM2 10.5H52V7.5H2V10.5Z" fill="#EA5250" mask="url(#path-2-inside-1_1027_37)"/>
<line x1="11" y1="20.25" x2="26" y2="20.25" stroke="#EA5250" stroke-width="1.5"/>
<line x1="11" y1="27.25" x2="40" y2="27.25" stroke="#EA5250" stroke-width="1.5"/>
<line x1="11" y1="33.25" x2="32" y2="33.25" stroke="#EA5250" stroke-width="1.5"/>
</svg>
