<svg width="80" height="80" viewBox="0 0 80 80" fill="none" xmlns="http://www.w3.org/2000/svg">
<g id="4">
<g id="Group 9">
<g id="Group 8">
<rect id="Rectangle 10" x="40.6667" y="19.3333" width="22.6667" height="36" fill="#D6F1FF" stroke="#32AAEE" stroke-width="1.33333"/>
<g id="Group 7">
<rect id="Rectangle 17" x="45.3333" y="23.6445" width="13.3333" height="1.24444" fill="#32AAEE"/>
<rect id="Rectangle 20" x="45.3333" y="31.1111" width="13.3333" height="1.24444" fill="#32AAEE"/>
<rect id="Rectangle 18" x="45.3333" y="27.3778" width="13.3333" height="1.24444" fill="#32AAEE"/>
<rect id="Rectangle 19" x="45.3333" y="36.0889" width="8" height="1.24444" fill="#32AAEE"/>
</g>
</g>
<g id="Union">
<mask id="path-6-inside-1_1_3995" fill="white">
<path fill-rule="evenodd" clip-rule="evenodd" d="M23.2888 55.928C22.8823 55.9754 22.4669 56 22.0444 56C17.2333 56 13.3333 52.8162 13.3333 48.8889C13.3333 45.2104 16.7547 42.1843 21.1414 41.8155C22.3692 37.7069 26.7651 34.6667 31.9999 34.6667C38.1855 34.6667 43.1999 38.9117 43.1999 44.1481C47.3236 44.1481 50.6666 46.8013 50.6666 50.0741C50.6666 53.3469 47.3236 56 43.1999 56C43.195 56 43.19 56 43.1851 56H23.2888V55.928Z"/>
</mask>
<path fill-rule="evenodd" clip-rule="evenodd" d="M23.2888 55.928C22.8823 55.9754 22.4669 56 22.0444 56C17.2333 56 13.3333 52.8162 13.3333 48.8889C13.3333 45.2104 16.7547 42.1843 21.1414 41.8155C22.3692 37.7069 26.7651 34.6667 31.9999 34.6667C38.1855 34.6667 43.1999 38.9117 43.1999 44.1481C47.3236 44.1481 50.6666 46.8013 50.6666 50.0741C50.6666 53.3469 47.3236 56 43.1999 56C43.195 56 43.19 56 43.1851 56H23.2888V55.928Z" fill="#D6F1FF"/>
<path d="M23.2888 55.928H24.6221V54.4299L23.1341 54.6036L23.2888 55.928ZM21.1414 41.8155L21.2531 43.1441L22.1587 43.068L22.4189 42.1973L21.1414 41.8155ZM43.1999 44.1481L41.8666 44.1481L41.8666 45.4815H43.1999V44.1481ZM43.1851 56L43.1871 54.6667H43.1851V56ZM23.2888 56H21.9554V57.3333H23.2888V56ZM23.1341 54.6036C22.7791 54.6451 22.4152 54.6667 22.0444 54.6667V57.3333C22.5185 57.3333 22.9856 57.3058 23.4434 57.2523L23.1341 54.6036ZM22.0444 54.6667C17.704 54.6667 14.6666 51.8397 14.6666 48.8889H11.9999C11.9999 53.7928 16.7627 57.3333 22.0444 57.3333V54.6667ZM14.6666 48.8889C14.6666 46.1204 17.3173 43.475 21.2531 43.1441L21.0297 40.4869C16.1921 40.8936 11.9999 44.3004 11.9999 48.8889H14.6666ZM22.4189 42.1973C23.4465 38.7586 27.2368 36 31.9999 36V33.3333C26.2934 33.3333 21.2918 36.6553 19.8639 41.4337L22.4189 42.1973ZM31.9999 36C37.6659 36 41.8666 39.8476 41.8666 44.1481L44.5332 44.1481C44.5332 37.9757 38.705 33.3333 31.9999 33.3333V36ZM43.1999 45.4815C46.8911 45.4815 49.3332 47.8085 49.3332 50.0741H51.9999C51.9999 45.794 47.7562 42.8148 43.1999 42.8148V45.4815ZM49.3332 50.0741C49.3332 52.3396 46.8911 54.6667 43.1999 54.6667V57.3333C47.7562 57.3333 51.9999 54.3541 51.9999 50.0741H49.3332ZM43.1999 54.6667C43.1956 54.6667 43.1914 54.6667 43.1871 54.6667L43.183 57.3333C43.1886 57.3333 43.1943 57.3333 43.1999 57.3333V54.6667ZM43.1851 54.6667H23.2888V57.3333H43.1851V54.6667ZM24.6221 56V55.928H21.9554V56H24.6221Z" fill="#32AAEE" mask="url(#path-6-inside-1_1_3995)"/>
</g>
</g>
<g id="Group 10">
<path id="Vector 5" d="M24.3672 34.9798C24.7081 35.5015 25.3629 35.6841 25.8295 35.3877L33.4342 30.5575C33.9008 30.2611 34.0027 29.5979 33.6617 29.0762C33.3207 28.5544 32.666 28.3718 32.1993 28.6682L25.4397 32.9617L20.5004 25.4045C20.1594 24.8828 19.5047 24.7002 19.038 24.9966C18.5714 25.293 18.4695 25.9562 18.8105 26.4779L24.3672 34.9798ZM37.4246 21.7713C38.0004 21.7875 38.4262 21.3144 38.3758 20.7146C38.3254 20.1148 37.8178 19.6154 37.242 19.5992L37.4246 21.7713ZM26.2462 34.7315C26.5883 32.5044 27.5843 29.1546 29.4326 26.4138C31.2779 23.6776 33.8794 21.6714 37.4246 21.7713L37.242 19.5992C32.8154 19.4745 29.7157 22.0075 27.6731 25.0364C25.6334 28.0608 24.5548 31.7022 24.1781 34.1546L26.2462 34.7315Z" fill="#32AAEE"/>
</g>
<g id="Group 11">
<path id="Vector 5_2" d="M59.3695 38.3405C59.0446 37.8491 58.3829 37.7141 57.8914 38.0389L49.8832 43.3332C49.3918 43.6581 49.2568 44.3198 49.5817 44.8112C49.9066 45.3027 50.5683 45.4377 51.0597 45.1128L58.1781 40.4068L62.8841 47.5252C63.209 48.0166 63.8707 48.1516 64.3622 47.8267C64.8536 47.5019 64.9886 46.8401 64.6637 46.3487L59.3695 38.3405ZM45.2905 52.3675C44.7019 52.3911 44.2439 52.8875 44.2675 53.4761C44.2912 54.0647 44.7875 54.5227 45.3761 54.4991L45.2905 52.3675ZM57.4345 38.7155C56.9784 40.9515 55.7952 44.3481 53.7603 47.199C51.729 50.045 48.9493 52.2205 45.2905 52.3675L45.3761 54.4991C49.9345 54.316 53.2487 51.5879 55.4967 48.4384C57.7411 45.2939 59.0227 41.6033 59.5248 39.142L57.4345 38.7155Z" fill="#32AAEE"/>
</g>
</g>
</svg>
