<svg width="80" height="80" viewBox="0 0 80 80" fill="none" xmlns="http://www.w3.org/2000/svg">
<mask id="path-1-inside-1_1_3976" fill="white">
<path fill-rule="evenodd" clip-rule="evenodd" d="M25.3333 25.3333C25.3333 24.597 25.9302 24 26.6666 24H55.9999C56.7363 24 57.3333 24.597 57.3333 25.3333V50.6667V53.3333V54.6667C57.3333 55.403 56.7363 56 55.9999 56H54.6666C53.1938 56 51.9999 54.8061 51.9999 53.3333H30.6666C30.6666 54.8061 29.4727 56 27.9999 56H26.6666C25.9302 56 25.3333 55.403 25.3333 54.6667V53.3333V50.6667V25.3333Z"/>
</mask>
<path fill-rule="evenodd" clip-rule="evenodd" d="M25.3333 25.3333C25.3333 24.597 25.9302 24 26.6666 24H55.9999C56.7363 24 57.3333 24.597 57.3333 25.3333V50.6667V53.3333V54.6667C57.3333 55.403 56.7363 56 55.9999 56H54.6666C53.1938 56 51.9999 54.8061 51.9999 53.3333H30.6666C30.6666 54.8061 29.4727 56 27.9999 56H26.6666C25.9302 56 25.3333 55.403 25.3333 54.6667V53.3333V50.6667V25.3333Z" fill="#D6F1FF"/>
<path d="M51.9999 53.3333H53.3333V52H51.9999V53.3333ZM30.6666 53.3333V52H29.3333V53.3333H30.6666ZM26.6666 22.6667C25.1938 22.6667 23.9999 23.8606 23.9999 25.3333H26.6666V25.3333V22.6667ZM55.9999 22.6667H26.6666V25.3333H55.9999V22.6667ZM58.6666 25.3333C58.6666 23.8606 57.4727 22.6667 55.9999 22.6667V25.3333H58.6666ZM58.6666 50.6667V25.3333H55.9999V50.6667H58.6666ZM58.6666 53.3333V50.6667H55.9999V53.3333H58.6666ZM58.6666 54.6667V53.3333H55.9999V54.6667H58.6666ZM55.9999 57.3333C57.4727 57.3333 58.6666 56.1394 58.6666 54.6667H55.9999V57.3333ZM54.6666 57.3333H55.9999V54.6667H54.6666V57.3333ZM50.6666 53.3333C50.6666 55.5425 52.4574 57.3333 54.6666 57.3333V54.6667C53.9302 54.6667 53.3333 54.0697 53.3333 53.3333H50.6666ZM30.6666 54.6667H51.9999V52H30.6666V54.6667ZM27.9999 57.3333C30.2091 57.3333 31.9999 55.5425 31.9999 53.3333H29.3333C29.3333 54.0697 28.7363 54.6667 27.9999 54.6667V57.3333ZM26.6666 57.3333H27.9999V54.6667H26.6666V57.3333ZM23.9999 54.6667C23.9999 56.1394 25.1938 57.3333 26.6666 57.3333V54.6667H26.6666H23.9999ZM23.9999 53.3333V54.6667H26.6666V53.3333H23.9999ZM23.9999 50.6667V53.3333H26.6666V50.6667H23.9999ZM23.9999 25.3333V50.6667H26.6666V25.3333H23.9999Z" fill="#32AAEE" mask="url(#path-1-inside-1_1_3976)"/>
<path fill-rule="evenodd" clip-rule="evenodd" d="M38.2869 35.8096H44.3794C44.0863 34.3958 42.8338 33.3333 41.3331 33.3333C39.8325 33.3333 38.58 34.3958 38.2869 35.8096ZM36.9337 35.8096H35.9998C35.2635 35.8096 34.6665 36.4065 34.6665 37.1429V44.0001C34.6665 44.7364 35.2635 45.3334 35.9998 45.3334H46.6665C47.4029 45.3334 47.9999 44.7364 47.9999 44.0001V37.1429C47.9999 36.4065 47.4029 35.8096 46.6665 35.8096H45.7326C45.4245 33.6557 43.5722 32 41.3331 32C39.0941 32 37.2418 33.6557 36.9337 35.8096Z" fill="#32AAEE"/>
<path fill-rule="evenodd" clip-rule="evenodd" d="M41.8887 41.9052C42.536 41.6764 42.9998 41.059 42.9998 40.3333C42.9998 39.4129 42.2536 38.6667 41.3332 38.6667C40.4127 38.6667 39.6665 39.4129 39.6665 40.3333C39.6665 41.059 40.1303 41.6764 40.7776 41.9052V43.1111H41.8887V41.9052Z" fill="#D6F1FF"/>
<path fill-rule="evenodd" clip-rule="evenodd" d="M58.675 41.184C58.7574 40.4523 59.4174 39.9259 60.1492 40.0083C63.3723 40.3715 65.5146 40.7223 66.8648 41.1895C67.5433 41.4242 68.1664 41.7348 68.6229 42.2108C69.1327 42.7422 69.3332 43.3708 69.3332 43.9999C69.3332 44.9202 68.7171 45.5364 68.2464 45.8814C67.7392 46.2532 67.0759 46.5561 66.35 46.8135C64.8818 47.3342 62.8316 47.7803 60.3872 48.1469C55.4779 48.8833 48.742 49.3332 41.3333 49.3332C33.9245 49.3332 27.1886 48.8833 22.2793 48.1469C19.8349 47.7802 17.7847 47.3342 16.3165 46.8135C15.5906 46.5561 14.9273 46.2532 14.4201 45.8814C13.9494 45.5364 13.3333 44.9202 13.3333 43.9999C13.3333 43.0756 13.911 42.4004 14.4618 41.9755C15.0344 41.5337 15.7958 41.1825 16.6654 40.9054C18.4179 40.347 20.8985 39.9999 23.9999 39.9999H25.3333V42.6666H23.9999C21.0664 42.6666 18.8803 42.9984 17.4749 43.4462C16.9572 43.6112 16.5829 43.7802 16.3272 43.9298C16.5421 44.0411 16.8314 44.1667 17.2078 44.3002C18.4385 44.7367 20.2935 45.1525 22.6749 45.5097C27.417 46.2211 34.0144 46.6666 41.3333 46.6666C48.6521 46.6666 55.2495 46.2211 59.9916 45.5097C62.373 45.1525 64.228 44.7367 65.4587 44.3002C65.8871 44.1483 66.2027 44.0066 66.4242 43.8844C66.3199 43.8335 66.1796 43.7742 65.9928 43.7096C64.9623 43.353 63.1046 43.0249 59.8506 42.6582C59.1189 42.5758 58.5925 41.9158 58.675 41.184ZM66.7639 43.6537C66.7706 43.6449 66.775 43.6405 66.7756 43.6406C66.7761 43.6406 66.7727 43.645 66.7639 43.6537ZM15.8909 43.6405C15.8915 43.6405 15.8959 43.6449 15.9027 43.6537C15.8938 43.645 15.8904 43.6406 15.8909 43.6405ZM15.9542 44.2109C15.9503 44.2176 15.9477 44.2208 15.9474 44.2208C15.9471 44.2208 15.949 44.2175 15.9542 44.2109Z" fill="#32AAEE"/>
<path d="M62.4817 45.1752C62.6049 45.0698 62.6665 44.945 62.6665 44.8008C62.6665 44.6566 62.6049 44.532 62.4817 44.4269L59.1109 41.3333L62.4941 38.2398C62.609 38.1414 62.6665 38.0184 62.6665 37.8709C62.6665 37.7233 62.6049 37.5968 62.4817 37.4914C62.3586 37.386 62.2127 37.3333 62.0442 37.3333C61.8757 37.3333 61.7301 37.386 61.6072 37.4914L57.4687 41.0435C57.4194 41.0856 57.3844 41.1313 57.3637 41.1805C57.343 41.2297 57.3328 41.2824 57.3332 41.3386C57.3332 41.3948 57.3435 41.4475 57.3642 41.4967C57.3849 41.5459 57.4197 41.5916 57.4687 41.6337L61.6195 45.1858C61.7345 45.2841 61.8762 45.3333 62.0447 45.3333C62.2132 45.3333 62.3589 45.2806 62.4817 45.1752Z" fill="#32AAEE"/>
</svg>
