<svg width="80" height="80" viewBox="0 0 80 80" fill="none" xmlns="http://www.w3.org/2000/svg">
<mask id="path-1-inside-1_1_4014" fill="white">
<path fill-rule="evenodd" clip-rule="evenodd" d="M41.0222 34.9198L26.711 24.1358L12.3306 34.8273L13.3332 34.8305V47.9999H39.9999V34.9165L41.0222 34.9198Z"/>
</mask>
<path fill-rule="evenodd" clip-rule="evenodd" d="M41.0222 34.9198L26.711 24.1358L12.3306 34.8273L13.3332 34.8305V47.9999H39.9999V34.9165L41.0222 34.9198Z" fill="#D6F1FF"/>
<path d="M26.711 24.1358L27.5134 23.071C27.0409 22.7149 26.3903 22.7128 25.9155 23.0658L26.711 24.1358ZM41.0222 34.9198L41.0179 36.2531C41.592 36.255 42.1029 35.8891 42.2859 35.3449C42.469 34.8007 42.2831 34.2005 41.8246 33.8549L41.0222 34.9198ZM12.3306 34.8273L11.535 33.7573C11.0743 34.0998 10.8846 34.6989 11.0641 35.2442C11.2436 35.7896 11.7521 36.1588 12.3263 36.1606L12.3306 34.8273ZM13.3332 34.8305H14.6666C14.6666 34.0958 14.0722 33.4996 13.3375 33.4972L13.3332 34.8305ZM13.3332 47.9999H11.9999C11.9999 48.7363 12.5969 49.3333 13.3332 49.3333V47.9999ZM39.9999 47.9999V49.3333C40.7363 49.3333 41.3332 48.7363 41.3332 47.9999H39.9999ZM39.9999 34.9165L40.0042 33.5832C39.6498 33.582 39.3096 33.722 39.0586 33.9722C38.8076 34.2223 38.6666 34.5621 38.6666 34.9165H39.9999ZM25.9086 25.2007L40.2198 35.9847L41.8246 33.8549L27.5134 23.071L25.9086 25.2007ZM13.1261 35.8973L27.5065 25.2058L25.9155 23.0658L11.535 33.7573L13.1261 35.8973ZM13.3375 33.4972L12.3349 33.494L12.3263 36.1606L13.3289 36.1638L13.3375 33.4972ZM14.6666 47.9999V34.8305H11.9999V47.9999H14.6666ZM39.9999 46.6666H13.3332V49.3333H39.9999V46.6666ZM38.6666 34.9165V47.9999H41.3332V34.9165H38.6666ZM41.0265 33.5865L40.0042 33.5832L39.9956 36.2498L41.0179 36.2531L41.0265 33.5865Z" fill="#32AAEE" mask="url(#path-1-inside-1_1_4014)"/>
<path d="M18.6665 26.6666H15.9998V32.2666H17.3332C18.0695 32.2666 18.6665 31.6697 18.6665 30.9333V26.6666Z" fill="#32AAEE"/>
<path fill-rule="evenodd" clip-rule="evenodd" d="M27.5555 32.7273H25.7777V33.7051C25.2103 33.8203 24.6821 34.0436 24.2156 34.3525L23.5239 33.6608L22.2668 34.9179L22.9585 35.6096C22.6495 36.0761 22.4262 36.6043 22.3111 37.1717H21.3333V38.9495H22.3111C22.4218 39.4951 22.6325 40.0044 22.9232 40.4575L22.2221 41.1586L23.4792 42.4157L24.1621 41.7328C24.6416 42.0604 25.1885 42.2965 25.7777 42.4162V43.3939H27.5555V42.4162C28.1229 42.301 28.6511 42.0777 29.1176 41.7687L29.8093 42.4604L31.0664 41.2033L30.3747 40.5116C30.6837 40.0451 30.907 39.5169 31.0221 38.9495H31.9999V37.1717H31.0221C30.9025 36.5825 30.6664 36.0356 30.3387 35.5562L31.0217 34.8732L29.7646 33.6161L29.0635 34.3172C28.6104 34.0265 28.1011 33.8158 27.5555 33.7051V32.7273ZM26.6666 39.8384C27.6484 39.8384 28.4444 39.0425 28.4444 38.0606C28.4444 37.0788 27.6484 36.2828 26.6666 36.2828C25.6848 36.2828 24.8888 37.0788 24.8888 38.0606C24.8888 39.0425 25.6848 39.8384 26.6666 39.8384Z" fill="#32AAEE"/>
<rect x="29.9999" y="30" width="38.6667" height="25.3333" rx="0.666667" fill="#D6F1FF" stroke="#32AAEE" stroke-width="1.33333" stroke-linejoin="round"/>
<line x1="37.6002" y1="34.6667" x2="37.6002" y2="50.6667" stroke="#32AAEE" stroke-width="0.533333"/>
<line x1="45.6002" y1="34.6667" x2="45.6002" y2="50.6667" stroke="#32AAEE" stroke-width="0.533333"/>
<line x1="53.6002" y1="34.6667" x2="53.6002" y2="50.6667" stroke="#32AAEE" stroke-width="0.533333"/>
<line x1="61.6002" y1="34.6667" x2="61.6002" y2="50.6667" stroke="#32AAEE" stroke-width="0.533333"/>
<circle cx="37.3334" cy="40" r="2.66667" fill="#32AAEE"/>
<circle cx="45.3334" cy="48" r="2.66667" fill="#32AAEE"/>
<circle cx="53.3334" cy="37.3333" r="2.66667" fill="#32AAEE"/>
<circle cx="61.3334" cy="42.6667" r="2.66667" fill="#32AAEE"/>
</svg>
