<svg width="135" height="135" viewBox="0 0 135 135" fill="none" xmlns="http://www.w3.org/2000/svg">
<g id="1">
<g id="Group 4">
<g id="Union">
<path fill-rule="evenodd" clip-rule="evenodd" d="M107.755 60.7874C108 61.2687 108 61.8988 108 63.1589V89.8412C108 91.1014 108 91.7314 107.755 92.2127C107.539 92.6361 107.195 92.9803 106.771 93.196C106.29 93.4412 105.66 93.4412 104.4 93.4412H101.806L99.7411 97.6766L95.6117 93.4412H49.6588C48.3987 93.4412 47.7686 93.4412 47.2873 93.196C46.864 92.9803 46.5198 92.6361 46.304 92.2127C46.0588 91.7314 46.0588 91.1014 46.0588 89.8412V63.1589C46.0588 61.8988 46.0588 61.2687 46.304 60.7874C46.5198 60.364 46.864 60.0198 47.2873 59.8041C47.7686 59.5589 48.3987 59.5589 49.6588 59.5589H104.4C105.66 59.5589 106.29 59.5589 106.771 59.8041C107.195 60.0198 107.539 60.364 107.755 60.7874Z" fill="#E9F7FF"/>
<path d="M107.755 60.7874L106.752 61.2981H106.752L107.755 60.7874ZM107.755 92.2127L108.757 92.7235L108.757 92.7235L107.755 92.2127ZM106.771 93.196L106.261 92.1936L106.261 92.1936L106.771 93.196ZM101.806 93.4412L100.795 92.9483C100.983 92.5616 101.376 92.3162 101.806 92.3162V93.4412ZM99.7411 97.6766L100.752 98.1695C100.592 98.4987 100.281 98.7291 99.9199 98.7873C99.5584 98.8455 99.1912 98.7241 98.9356 98.4619L99.7411 97.6766ZM95.6117 93.4412V92.3162C95.915 92.3162 96.2054 92.4387 96.4172 92.6559L95.6117 93.4412ZM47.2873 93.196L46.7766 94.1984L47.2873 93.196ZM46.304 92.2127L45.3017 92.7235L46.304 92.2127ZM46.304 60.7874L47.3064 61.2981L47.3064 61.2981L46.304 60.7874ZM47.2873 59.8041L46.7766 58.8017L46.7766 58.8017L47.2873 59.8041ZM106.771 59.8041L106.261 60.8065L106.771 59.8041ZM106.875 63.1589C106.875 62.5103 106.874 62.0915 106.848 61.7727C106.823 61.4671 106.781 61.3538 106.752 61.2981L108.757 60.2767C108.974 60.7023 109.054 61.1447 109.091 61.5895C109.126 62.0211 109.125 62.5474 109.125 63.1589H106.875ZM106.875 89.8412V63.1589H109.125V89.8412H106.875ZM106.752 91.702C106.781 91.6464 106.823 91.533 106.848 91.2274C106.874 90.9087 106.875 90.4899 106.875 89.8412H109.125C109.125 90.4527 109.126 90.979 109.091 91.4106C109.054 91.8554 108.974 92.2978 108.757 92.7235L106.752 91.702ZM106.261 92.1936C106.472 92.0858 106.645 91.9137 106.752 91.702L108.757 92.7235C108.434 93.3585 107.917 93.8748 107.282 94.1984L106.261 92.1936ZM104.4 92.3162C105.049 92.3162 105.467 92.3154 105.786 92.2893C106.092 92.2644 106.205 92.222 106.261 92.1936L107.282 94.1984C106.857 94.4153 106.414 94.4955 105.969 94.5319C105.538 94.5671 105.011 94.5662 104.4 94.5662V92.3162ZM101.806 92.3162H104.4V94.5662H101.806V92.3162ZM98.7299 97.1836L100.795 92.9483L102.817 93.9342L100.752 98.1695L98.7299 97.1836ZM96.4172 92.6559L100.547 96.8912L98.9356 98.4619L94.8062 94.2266L96.4172 92.6559ZM49.6588 92.3162H95.6117V94.5662H49.6588V92.3162ZM47.7981 92.1936C47.8537 92.222 47.967 92.2644 48.2726 92.2893C48.5914 92.3154 49.0102 92.3162 49.6588 92.3162V94.5662C49.0473 94.5662 48.521 94.5671 48.0894 94.5319C47.6446 94.4955 47.2023 94.4153 46.7766 94.1984L47.7981 92.1936ZM47.3064 91.702C47.4143 91.9137 47.5864 92.0858 47.7981 92.1936L46.7766 94.1984C46.1415 93.8748 45.6252 93.3585 45.3017 92.7235L47.3064 91.702ZM47.1838 89.8412C47.1838 90.4899 47.1847 90.9087 47.2107 91.2274C47.2357 91.533 47.2781 91.6464 47.3064 91.702L45.3017 92.7235C45.0848 92.2978 45.0045 91.8554 44.9682 91.4106C44.9329 90.979 44.9338 90.4527 44.9338 89.8412H47.1838ZM47.1838 63.1589V89.8412H44.9338V63.1589H47.1838ZM47.3064 61.2981C47.2781 61.3538 47.2357 61.4671 47.2107 61.7727C47.1847 62.0915 47.1838 62.5103 47.1838 63.1589H44.9338C44.9338 62.5474 44.9329 62.0211 44.9682 61.5895C45.0045 61.1447 45.0848 60.7023 45.3017 60.2767L47.3064 61.2981ZM47.7981 60.8065C47.5864 60.9144 47.4143 61.0865 47.3064 61.2981L45.3017 60.2767C45.6252 59.6416 46.1415 59.1253 46.7766 58.8017L47.7981 60.8065ZM49.6588 60.6839C49.0102 60.6839 48.5914 60.6848 48.2726 60.7108C47.967 60.7358 47.8537 60.7782 47.7981 60.8065L46.7766 58.8017C47.2023 58.5848 47.6446 58.5046 48.0894 58.4683C48.521 58.433 49.0473 58.4339 49.6588 58.4339V60.6839ZM104.4 60.6839H49.6588V58.4339H104.4V60.6839ZM106.261 60.8065C106.205 60.7782 106.092 60.7358 105.786 60.7108C105.467 60.6848 105.049 60.6839 104.4 60.6839V58.4339C105.011 58.4339 105.538 58.433 105.969 58.4683C106.414 58.5046 106.857 58.5848 107.282 58.8017L106.261 60.8065ZM106.752 61.2981C106.645 61.0865 106.472 60.9144 106.261 60.8065L107.282 58.8017C107.917 59.1253 108.434 59.6416 108.757 60.2767L106.752 61.2981Z" fill="#007BC2"/>
</g>
<g id="Group 3">
<g id="Union_2">
<path fill-rule="evenodd" clip-rule="evenodd" d="M27.2452 41.7285C27 42.2098 27 42.8398 27 44.1V84.547C27 85.8072 27 86.4372 27.2452 86.9185C27.461 87.3419 27.8052 87.6861 28.2285 87.9018C28.7098 88.147 29.3399 88.147 30.6 88.147H34.1472L36.5296 92.9118L41.2944 88.147H99.6353C100.895 88.147 101.525 88.147 102.007 87.9018C102.43 87.6861 102.774 87.3419 102.99 86.9185C103.235 86.4372 103.235 85.8072 103.235 84.5471V44.1C103.235 42.8399 103.235 42.2098 102.99 41.7285C102.774 41.3051 102.43 40.9609 102.007 40.7452C101.525 40.5 100.895 40.5 99.6353 40.5H30.6C29.3399 40.5 28.7098 40.5 28.2285 40.7452C27.8052 40.9609 27.461 41.3051 27.2452 41.7285Z" fill="#E9F7FF"/>
<path d="M27.2452 41.7285L28.2476 42.2392H28.2476L27.2452 41.7285ZM27.2452 86.9185L26.2429 87.4293L26.2429 87.4293L27.2452 86.9185ZM28.2285 87.9018L28.7393 86.8994L28.7393 86.8994L28.2285 87.9018ZM34.1472 88.147L35.1534 87.6439C34.9629 87.2628 34.5733 87.022 34.1472 87.022V88.147ZM36.5296 92.9118L35.5234 93.415C35.6851 93.7384 35.9924 93.9644 36.3494 94.0223C36.7064 94.0802 37.0694 93.963 37.3251 93.7073L36.5296 92.9118ZM41.2944 88.147V87.022C40.996 87.022 40.7099 87.1406 40.4989 87.3516L41.2944 88.147ZM102.007 87.9018L101.496 86.8994L101.496 86.8994L102.007 87.9018ZM102.99 86.9185L103.992 87.4293L103.992 87.4293L102.99 86.9185ZM102.99 41.7285L103.992 41.2178L103.992 41.2177L102.99 41.7285ZM102.007 40.7452L101.496 41.7476L101.496 41.7476L102.007 40.7452ZM28.2285 40.7452L28.7393 41.7476L28.2285 40.7452ZM28.125 44.1C28.125 43.4513 28.1259 43.0325 28.1519 42.7138C28.1769 42.4082 28.2193 42.2949 28.2476 42.2392L26.2429 41.2178C26.026 41.6434 25.9457 42.0858 25.9094 42.5306C25.8741 42.9622 25.875 43.4885 25.875 44.1H28.125ZM28.125 84.547V44.1H25.875V84.547H28.125ZM28.2476 86.4078C28.2193 86.3522 28.1769 86.2388 28.1519 85.9332C28.1259 85.6145 28.125 85.1957 28.125 84.547H25.875C25.875 85.1585 25.8741 85.6848 25.9094 86.1165C25.9457 86.5612 26.026 87.0036 26.2429 87.4293L28.2476 86.4078ZM28.7393 86.8994C28.5276 86.7916 28.3555 86.6195 28.2476 86.4078L26.2429 87.4293C26.5664 88.0643 27.0827 88.5806 27.7178 88.9042L28.7393 86.8994ZM30.6 87.022C29.9514 87.022 29.5326 87.0212 29.2138 86.9951C28.9082 86.9702 28.7949 86.9278 28.7393 86.8994L27.7178 88.9042C28.1435 89.1211 28.5858 89.2013 29.0306 89.2377C29.4622 89.2729 29.9885 89.272 30.6 89.272V87.022ZM34.1472 87.022H30.6V89.272H34.1472V87.022ZM37.5358 92.4087L35.1534 87.6439L33.141 88.6502L35.5234 93.415L37.5358 92.4087ZM40.4989 87.3516L35.7341 92.1163L37.3251 93.7073L42.0899 88.9425L40.4989 87.3516ZM99.6353 87.022H41.2944V89.272H99.6353V87.022ZM101.496 86.8994C101.44 86.9278 101.327 86.9702 101.021 86.9951C100.703 87.0212 100.284 87.022 99.6353 87.022V89.272C100.247 89.272 100.773 89.2729 101.205 89.2377C101.649 89.2013 102.092 89.1211 102.518 88.9042L101.496 86.8994ZM101.988 86.4078C101.88 86.6195 101.708 86.7916 101.496 86.8994L102.518 88.9042C103.153 88.5806 103.669 88.0643 103.992 87.4293L101.988 86.4078ZM102.11 84.5471C102.11 85.1957 102.109 85.6145 102.083 85.9332C102.058 86.2389 102.016 86.3522 101.988 86.4078L103.992 87.4293C104.209 87.0036 104.29 86.5612 104.326 86.1165C104.361 85.6848 104.36 85.1585 104.36 84.5471H102.11ZM102.11 44.1V84.5471H104.36V44.1H102.11ZM101.988 42.2392C102.016 42.2948 102.058 42.4082 102.083 42.7138C102.109 43.0325 102.11 43.4513 102.11 44.1H104.36C104.36 43.4885 104.361 42.9622 104.326 42.5306C104.29 42.0858 104.209 41.6434 103.992 41.2178L101.988 42.2392ZM101.496 41.7476C101.708 41.8554 101.88 42.0275 101.988 42.2392L103.992 41.2177C103.669 40.5827 103.153 40.0664 102.518 39.7428L101.496 41.7476ZM99.6353 41.625C100.284 41.625 100.703 41.6258 101.021 41.6519C101.327 41.6769 101.44 41.7192 101.496 41.7476L102.518 39.7428C102.092 39.5259 101.649 39.4457 101.205 39.4094C100.773 39.3741 100.247 39.375 99.6353 39.375V41.625ZM30.6 41.625H99.6353V39.375H30.6V41.625ZM28.7393 41.7476C28.7949 41.7192 28.9082 41.6769 29.2138 41.6519C29.5326 41.6258 29.9514 41.625 30.6 41.625V39.375C29.9885 39.375 29.4622 39.3741 29.0306 39.4094C28.5858 39.4457 28.1435 39.5259 27.7178 39.7428L28.7393 41.7476ZM28.2476 42.2392C28.3555 42.0275 28.5276 41.8554 28.7393 41.7476L27.7178 39.7428C27.0827 40.0664 26.5664 40.5827 26.2429 41.2178L28.2476 42.2392Z" fill="#007BC2"/>
</g>
<line id="Line 1" x1="27" y1="54.3441" x2="103.235" y2="54.3441" stroke="#007BC2" stroke-width="0.9"/>
<circle id="Ellipse 1" cx="34.1472" cy="47.6469" r="2.38235" fill="#007BC2"/>
<circle id="Ellipse 2" cx="43.6763" cy="47.6469" r="2.38235" fill="#007BC2"/>
<circle id="Ellipse 3" cx="53.2058" cy="47.6469" r="2.38235" fill="#007BC2"/>
<g id="Group 2">
<circle id="Ellipse 4" cx="41.2943" cy="69.0882" r="9.52941" fill="#00A2FF"/>
<path id="Vector 2" d="M41.2944 69.0882V59.5588C48.918 59.5588 50.8238 65.9117 50.8238 69.0882H41.2944Z" fill="#007BC2" stroke="#007BC2" stroke-width="2.25"/>
</g>
<g id="Group 1">
<path id="Vector 3" d="M60.353 81L69.8824 72L74.6471 77.3169L84.1766 67.5L88.9413 69.75" stroke="#007BC2" stroke-width="2.25" stroke-linecap="round" stroke-linejoin="round"/>
<path id="Vector 4" d="M60.353 74.25L69.8824 67.5L74.6471 70.5669L84.1766 58.5H91.3236" stroke="#007BC2" stroke-width="2.25" stroke-linecap="round" stroke-linejoin="round"/>
</g>
</g>
</g>
</g>
</svg>
