<svg width="255" height="59" viewBox="0 0 255 59" fill="none" xmlns="http://www.w3.org/2000/svg">
<g id="2.9 Logo-asteros 1">
<g id="Group 8">
<path id="Vector" d="M39.761 29.8234L22.4547 6.67041L29.2458 26.1189L9.8584 29.8234L29.2458 33.5278L22.4547 52.9763L39.761 29.8234Z" fill="#00A2FF"/>
<path id="Vector_2" d="M40.7465 26.1189L47.5376 6.67041L35.708 22.4144L41.2942 29.8234L35.708 37.2323L47.5376 52.9763L40.7465 33.5278L60.0244 29.8234L40.7465 26.1189Z" fill="white"/>
<path id="Vector_3" d="M91.242 19.2886C89.8181 19.2886 88.5036 19.2886 87.0797 19.2886C86.6416 19.2886 86.532 19.4044 86.532 19.8674C86.532 20.6778 86.532 21.4881 86.532 22.4143C84.1223 19.8674 81.603 18.4783 78.9742 18.3625C73.388 18.2467 68.7876 21.9512 67.2542 27.6237C66.816 29.2444 66.3779 33.5277 67.8018 37.3479C70.9783 45.683 80.2886 47.651 86.4225 41.3997C86.4225 41.3997 86.532 41.2839 86.6416 41.2839C86.6416 42.0943 86.6416 42.9046 86.6416 43.715C86.6416 44.178 86.7511 44.2938 87.1892 44.2938C88.6132 44.2938 89.9276 44.2938 91.3515 44.2938C91.7896 44.2938 91.8992 44.178 91.8992 43.715C91.8992 35.7272 91.8992 27.7394 91.8992 19.7517C91.7896 19.4044 91.6801 19.2886 91.242 19.2886ZM84.4509 37.4637C82.5888 39.6632 80.1791 40.242 77.5503 39.4317C74.812 38.6213 73.169 36.5376 72.6213 33.6434C72.5118 33.0646 72.4022 32.6016 72.5118 32.1385C72.5118 28.434 74.5929 25.3084 77.5503 24.3823C81.603 23.1089 85.6558 25.8872 86.4225 30.2863C86.6416 32.8331 86.2034 35.3799 84.4509 37.4637Z" fill="#00A2FF"/>
<path id="Vector_4" d="M186.097 19.9835C182.264 17.6682 177.116 18.0155 174.049 20.9096C173.611 21.2569 173.172 21.72 172.734 22.183C172.734 21.4884 172.734 20.7938 172.734 20.0993C172.734 19.5204 172.515 19.2889 171.968 19.4047C170.653 19.4047 169.339 19.4047 168.024 19.4047C167.586 19.4047 167.367 19.5204 167.367 20.0993C167.367 30.8654 167.367 41.5157 167.367 52.2818C167.367 52.8607 167.586 52.9764 168.024 52.9764C169.448 52.9764 170.982 52.9764 172.406 52.9764C172.953 52.9764 173.063 52.7449 173.063 52.2818C173.063 49.272 173.063 46.1463 173.063 43.0207C173.063 42.7891 172.953 42.5576 173.172 42.3261C173.392 42.3261 173.501 42.4418 173.611 42.5576C177.006 45.799 180.949 46.1463 184.893 44.2941C189.274 42.3261 191.574 38.5058 192.231 33.528C192.998 28.2028 190.479 22.5303 186.097 19.9835ZM185.112 36.8851C182.592 40.3581 178.101 40.7054 175.144 37.6955C171.749 34.2226 172.296 28.087 176.13 25.3087C177.225 24.4983 178.54 24.0353 180.183 24.0353C182.154 24.0353 183.907 25.0771 185.221 26.8136C187.302 29.7077 187.302 33.8753 185.112 36.8851Z" fill="#00A2FF"/>
<path id="Vector_5" d="M159.372 21.141C155.538 18.0154 151.267 17.5523 146.776 19.6361C141.518 22.0671 138.67 27.8554 139.546 34.2225C140.642 42.789 149.405 47.7669 156.853 44.1782C159.81 42.789 162.001 40.4737 163.206 37.2323C163.315 36.885 163.534 36.5377 162.877 36.5377C161.125 36.5377 159.482 36.5377 157.729 36.5377C157.51 36.5377 157.291 36.6535 157.181 36.885C155.977 38.853 154.334 39.6634 152.252 39.7792C149.514 39.8949 146.666 38.0427 145.68 35.4959C145.352 34.6855 145.352 34.5697 146.228 34.5697C149.076 34.5697 151.814 34.5697 154.662 34.5697C157.4 34.5697 160.029 34.5697 162.768 34.5697C163.972 34.5697 163.972 34.5697 164.082 33.2963C164.52 28.3184 163.096 24.1509 159.372 21.141ZM157.729 29.7076C155.757 29.7076 153.676 29.7076 151.705 29.7076C149.733 29.7076 147.762 29.7076 145.79 29.7076C145.352 29.7076 145.242 29.5919 145.352 29.1288C146.557 24.4982 152.033 22.4144 155.757 25.1928C157.072 26.1189 157.839 27.6239 158.277 29.2446C158.277 29.5919 158.167 29.7076 157.729 29.7076Z" fill="white"/>
<path id="Vector_6" d="M207.566 18.4785C200.556 18.4785 194.86 24.4983 194.86 31.9072C194.86 39.2004 200.556 45.2202 207.457 45.3359C214.576 45.3359 220.053 39.5477 220.053 31.9072C220.053 24.3825 214.576 18.4785 207.566 18.4785ZM209.209 39.4319C205.157 40.5896 201.104 37.5797 200.556 33.1806C200.118 29.9392 201.104 27.2766 203.514 25.3086C206.033 23.2249 209.428 23.4564 211.838 25.7717C213.481 27.3924 214.248 29.4762 214.357 31.2126C214.357 35.4959 212.167 38.6216 209.209 39.4319Z" fill="#00A2FF"/>
<path id="Vector_7" d="M136.807 19.2886C131.659 19.2886 126.402 19.2886 121.254 19.2886C120.816 19.2886 120.706 19.5201 120.706 19.8674C120.706 21.3723 120.706 22.7615 120.706 24.2665C120.706 24.7295 120.925 24.8453 121.254 24.8453C122.568 24.8453 123.992 24.8453 125.306 24.8453C125.964 24.8453 126.183 25.0768 126.183 25.7714C126.183 31.7912 126.183 37.6952 126.183 43.7149C126.183 44.2938 126.292 44.5253 126.84 44.4095C128.264 44.4095 129.797 44.4095 131.221 44.4095C131.769 44.4095 131.878 44.2938 131.878 43.7149C131.878 40.705 131.878 37.5794 131.878 34.5695C131.878 31.5596 131.878 28.434 131.878 25.4241C131.878 24.8453 131.988 24.7295 132.536 24.7295C133.96 24.7295 135.384 24.7295 136.807 24.7295C137.246 24.7295 137.355 24.6137 137.355 24.1507C137.355 22.6457 137.355 21.2566 137.355 19.7516C137.355 19.4043 137.246 19.2886 136.807 19.2886Z" fill="#00A2FF"/>
<path id="Vector_8" d="M108.001 39.6635C104.167 39.6635 101.1 36.1906 101.1 31.7915C101.1 27.3924 104.167 23.9195 108.001 23.9195C110.082 23.9195 111.944 24.9614 113.258 26.6979L117.421 22.7619C115.12 19.9835 111.725 18.3628 108.001 18.3628C100.991 18.3628 95.2949 24.3826 95.2949 31.7915C95.2949 39.2004 100.991 45.2202 108.001 45.2202C111.725 45.2202 115.12 43.4837 117.421 40.7054L113.258 36.7694C111.944 38.6216 110.082 39.6635 108.001 39.6635Z" fill="#00A2FF"/>
<path id="Vector_9" d="M241.084 36.8851C239.769 38.6216 237.907 39.6635 235.826 39.6635C231.992 39.6635 228.925 36.1906 228.925 31.7915C228.925 27.3924 231.992 23.9195 235.826 23.9195C237.907 23.9195 239.769 24.9614 241.084 26.6979L245.246 22.7619C242.946 19.9835 239.55 18.3628 235.826 18.3628C228.816 18.3628 223.12 24.3826 223.12 31.7915C223.12 39.2004 228.816 45.2202 235.826 45.2202C239.55 45.2202 242.946 43.4837 245.246 40.7054L241.084 36.8851Z" fill="#00A2FF"/>
</g>
</g>
</svg>
