<svg width="180" height="41" viewBox="0 0 180 41" fill="none" xmlns="http://www.w3.org/2000/svg">
<g id="2.9 Logo-asteros 1">
<g id="Group 8">
<path id="Vector" d="M28.1637 20.5L15.9051 4.10001L20.7154 17.876L6.98267 20.5L20.7154 23.124L15.9051 36.9L28.1637 20.5Z" fill="#00A2FF"/>
<path id="Vector_2" d="M28.8619 17.876L33.6723 4.10001L25.293 15.252L29.2499 20.5L25.293 25.748L33.6723 36.9L28.8619 23.124L42.5171 20.5L28.8619 17.876Z" fill="white"/>
<path id="Vector_3" d="M64.6291 13.038C63.6205 13.038 62.6895 13.038 61.6809 13.038C61.3705 13.038 61.2929 13.12 61.2929 13.448C61.2929 14.022 61.2929 14.5959 61.2929 15.2519C59.586 13.4479 57.8015 12.4639 55.9395 12.3819C51.9826 12.2999 48.724 14.9239 47.6377 18.9419C47.3274 20.09 47.0171 23.124 48.0257 25.83C50.2757 31.734 56.8705 33.128 61.2153 28.7C61.2153 28.7 61.2929 28.618 61.3705 28.618C61.3705 29.192 61.3705 29.766 61.3705 30.34C61.3705 30.668 61.4481 30.75 61.7584 30.75C62.7671 30.75 63.6981 30.75 64.7067 30.75C65.0171 30.75 65.0946 30.668 65.0946 30.34C65.0946 24.682 65.0946 19.024 65.0946 13.366C65.0171 13.12 64.9395 13.038 64.6291 13.038ZM59.8188 25.9119C58.4998 27.4699 56.7929 27.88 54.9309 27.306C52.9912 26.732 51.8274 25.256 51.4395 23.206C51.3619 22.796 51.2843 22.468 51.3619 22.14C51.3619 19.516 52.836 17.302 54.9309 16.646C57.8015 15.744 60.6722 17.712 61.2153 20.828C61.3705 22.632 61.0602 24.4359 59.8188 25.9119Z" fill="#00A2FF"/>
<path id="Vector_4" d="M131.819 13.53C129.103 11.89 125.457 12.136 123.284 14.186C122.974 14.432 122.664 14.76 122.353 15.088C122.353 14.596 122.353 14.104 122.353 13.612C122.353 13.202 122.198 13.038 121.81 13.12C120.879 13.12 119.948 13.12 119.017 13.12C118.707 13.12 118.552 13.202 118.552 13.612C118.552 21.238 118.552 28.782 118.552 36.408C118.552 36.818 118.707 36.9 119.017 36.9C120.026 36.9 121.112 36.9 122.12 36.9C122.508 36.9 122.586 36.736 122.586 36.408C122.586 34.276 122.586 32.062 122.586 29.848C122.586 29.684 122.508 29.52 122.664 29.356C122.819 29.356 122.896 29.438 122.974 29.52C125.379 31.816 128.172 32.062 130.965 30.75C134.069 29.356 135.698 26.65 136.164 23.124C136.707 19.352 134.922 15.334 131.819 13.53ZM131.12 25.502C129.336 27.962 126.155 28.208 124.06 26.076C121.655 23.616 122.043 19.27 124.758 17.302C125.534 16.728 126.465 16.4 127.629 16.4C129.026 16.4 130.267 17.138 131.198 18.368C132.672 20.418 132.672 23.37 131.12 25.502Z" fill="#00A2FF"/>
<path id="Vector_5" d="M112.888 14.35C110.172 12.136 107.146 11.808 103.965 13.284C100.241 15.006 98.2241 19.106 98.8447 23.616C99.6206 29.684 105.828 33.21 111.103 30.668C113.198 29.684 114.75 28.044 115.603 25.748C115.681 25.502 115.836 25.256 115.371 25.256C114.129 25.256 112.965 25.256 111.724 25.256C111.569 25.256 111.414 25.338 111.336 25.502C110.483 26.896 109.319 27.47 107.845 27.552C105.905 27.634 103.888 26.322 103.19 24.518C102.957 23.944 102.957 23.862 103.578 23.862C105.595 23.862 107.534 23.862 109.552 23.862C111.491 23.862 113.353 23.862 115.293 23.862C116.146 23.862 116.146 23.862 116.224 22.96C116.534 19.434 115.526 16.482 112.888 14.35ZM111.724 20.418C110.328 20.418 108.853 20.418 107.457 20.418C106.06 20.418 104.664 20.418 103.267 20.418C102.957 20.418 102.879 20.336 102.957 20.008C103.81 16.728 107.69 15.252 110.328 17.22C111.259 17.876 111.802 18.942 112.112 20.09C112.112 20.336 112.034 20.418 111.724 20.418Z" fill="white"/>
<path id="Vector_6" d="M147.026 12.464C142.06 12.464 138.026 16.728 138.026 21.976C138.026 27.142 142.06 31.406 146.948 31.488C151.991 31.488 155.871 27.388 155.871 21.976C155.871 16.646 151.991 12.464 147.026 12.464ZM148.19 27.306C145.319 28.126 142.448 25.994 142.06 22.878C141.75 20.582 142.448 18.696 144.155 17.302C145.94 15.826 148.345 15.99 150.052 17.63C151.216 18.778 151.759 20.254 151.836 21.484C151.836 24.518 150.285 26.732 148.19 27.306Z" fill="#00A2FF"/>
<path id="Vector_7" d="M96.9052 13.038C93.2586 13.038 89.5345 13.038 85.8879 13.038C85.5776 13.038 85.5 13.202 85.5 13.448C85.5 14.514 85.5 15.498 85.5 16.564C85.5 16.892 85.6552 16.974 85.8879 16.974C86.819 16.974 87.8276 16.974 88.7586 16.974C89.2241 16.974 89.3793 17.138 89.3793 17.63C89.3793 21.894 89.3793 26.076 89.3793 30.34C89.3793 30.75 89.4569 30.914 89.8448 30.832C90.8535 30.832 91.9397 30.832 92.9483 30.832C93.3362 30.832 93.4138 30.75 93.4138 30.34C93.4138 28.208 93.4138 25.994 93.4138 23.862C93.4138 21.73 93.4138 19.516 93.4138 17.384C93.4138 16.974 93.4914 16.892 93.8793 16.892C94.8879 16.892 95.8966 16.892 96.9052 16.892C97.2155 16.892 97.2931 16.81 97.2931 16.482C97.2931 15.416 97.2931 14.432 97.2931 13.366C97.2931 13.12 97.2155 13.038 96.9052 13.038Z" fill="#00A2FF"/>
<path id="Vector_8" d="M76.5 27.47C73.7845 27.47 71.6121 25.01 71.6121 21.894C71.6121 18.778 73.7845 16.318 76.5 16.318C77.9741 16.318 79.2931 17.056 80.2241 18.286L83.1724 15.498C81.5431 13.53 79.1379 12.382 76.5 12.382C71.5345 12.382 67.5 16.646 67.5 21.894C67.5 27.142 71.5345 31.406 76.5 31.406C79.1379 31.406 81.5431 30.176 83.1724 28.208L80.2241 25.42C79.2931 26.732 77.9741 27.47 76.5 27.47Z" fill="#00A2FF"/>
<path id="Vector_9" d="M170.767 25.502C169.836 26.732 168.517 27.47 167.043 27.47C164.327 27.47 162.155 25.01 162.155 21.894C162.155 18.778 164.327 16.318 167.043 16.318C168.517 16.318 169.836 17.056 170.767 18.286L173.715 15.498C172.086 13.53 169.681 12.382 167.043 12.382C162.077 12.382 158.043 16.646 158.043 21.894C158.043 27.142 162.077 31.406 167.043 31.406C169.681 31.406 172.086 30.176 173.715 28.208L170.767 25.502Z" fill="#00A2FF"/>
</g>
</g>
</svg>
