<svg width="30" height="30" viewBox="0 0 30 30" fill="none" xmlns="http://www.w3.org/2000/svg">
<path id="Vector" d="M6.03333 12.9833C8.43333 17.7 12.3 21.5667 17.0167 23.9667L20.6833 20.3C21.15 19.8333 21.8 19.7 22.3833 19.8833C24.25 20.5 26.25 20.8333 28.3333 20.8333C28.7754 20.8333 29.1993 21.0089 29.5118 21.3215C29.8244 21.6341 30 22.058 30 22.5V28.3333C30 28.7754 29.8244 29.1993 29.5118 29.5118C29.1993 29.8244 28.7754 30 28.3333 30C20.8189 30 13.6122 27.0149 8.29864 21.7014C2.98511 16.3878 0 9.18113 0 1.66667C0 1.22464 0.175595 0.800716 0.488155 0.488155C0.800716 0.175595 1.22464 0 1.66667 0H7.5C7.94203 0 8.36595 0.175595 8.67851 0.488155C8.99107 0.800716 9.16667 1.22464 9.16667 1.66667C9.16667 3.75 9.5 5.75 10.1167 7.61667C10.3 8.2 10.1667 8.85 9.7 9.31667L6.03333 12.9833Z" fill="white"/>
</svg>
