<svg width="43" height="43" viewBox="0 0 43 43" fill="none" xmlns="http://www.w3.org/2000/svg">
<path id="Vector" d="M8.753 18.6824C12.1412 25.3413 17.6001 30.8001 24.2589 34.1883L29.4353 29.0119C30.0942 28.353 31.0118 28.1648 31.8354 28.4236C34.4706 29.2942 37.2942 29.7648 40.2353 29.7648C40.8594 29.7648 41.4579 30.0127 41.8991 30.454C42.3404 30.8952 42.5883 31.4937 42.5883 32.1177V40.353C42.5883 40.9771 42.3404 41.5755 41.8991 42.0168C41.4579 42.4581 40.8594 42.706 40.2353 42.706C29.6267 42.706 19.4525 38.4917 11.9511 30.9902C4.44963 23.4888 0.235352 13.3146 0.235352 2.70597C0.235352 2.08193 0.48325 1.48345 0.924512 1.04219C1.36577 0.600926 1.96425 0.353027 2.58829 0.353027H10.8236C11.4476 0.353027 12.0461 0.600926 12.4874 1.04219C12.9286 1.48345 13.1765 2.08193 13.1765 2.70597C13.1765 5.64714 13.6471 8.47067 14.5177 11.106C14.7765 11.9295 14.5883 12.8471 13.9295 13.506L8.753 18.6824Z" fill="white"/>
</svg>
