<svg width="34" height="34" viewBox="0 0 34 34" fill="none" xmlns="http://www.w3.org/2000/svg">
<path id="Vector" d="M32 32L24.4064 24.4064M24.4064 24.4064C25.6252 23.1876 26.592 21.7407 27.2516 20.1482C27.9113 18.5558 28.2508 16.849 28.2508 15.1254C28.2508 13.4017 27.9113 11.695 27.2516 10.1025C26.592 8.51007 25.6252 7.06314 24.4064 5.84433C23.1876 4.62553 21.7407 3.65872 20.1482 2.99911C18.5558 2.3395 16.849 2 15.1254 2C13.4017 2 11.695 2.3395 10.1025 2.99911C8.51007 3.65872 7.06314 4.62553 5.84433 5.84433C3.38285 8.30582 2 11.6443 2 15.1254C2 18.6064 3.38285 21.9449 5.84433 24.4064C8.30582 26.8679 11.6443 28.2508 15.1254 28.2508C18.6064 28.2508 21.9449 26.8679 24.4064 24.4064Z" stroke="white" stroke-width="4" stroke-linecap="round" stroke-linejoin="round"/>
</svg>
