<svg width="47" height="48" viewBox="0 0 47 48" fill="none" xmlns="http://www.w3.org/2000/svg">
<path id="Vector" d="M44.7055 45.1176L33.9851 34.3972M33.9851 34.3972C35.7058 32.6766 37.0707 30.6338 38.0019 28.3857C38.9331 26.1375 39.4124 23.728 39.4124 21.2946C39.4124 18.8612 38.9331 16.4516 38.0019 14.2035C37.0707 11.9553 35.7058 9.91261 33.9851 8.19194C32.2645 6.47128 30.2217 5.10637 27.9736 4.17516C25.7254 3.24394 23.3159 2.76465 20.8825 2.76465C18.4491 2.76465 16.0395 3.24394 13.7914 4.17516C11.5432 5.10637 9.5005 6.47128 7.77983 8.19194C4.3048 11.667 2.35254 16.3801 2.35254 21.2946C2.35254 26.209 4.3048 30.9222 7.77983 34.3972C11.2549 37.8723 15.968 39.8245 20.8825 39.8245C25.7969 39.8245 30.5101 37.8723 33.9851 34.3972Z" stroke="white" stroke-width="4" stroke-linecap="round" stroke-linejoin="round"/>
</svg>
