<svg width="114" height="114" viewBox="0 0 114 114" fill="none" xmlns="http://www.w3.org/2000/svg">
<g id="2">
<g id="Group 21">
<g id="Group 5">
<g id="Union">
<mask id="path-1-inside-1_1_4014" fill="white">
<path fill-rule="evenodd" clip-rule="evenodd" d="M58.0312 49.534L37.8272 34.3096L17.5254 49.4034L18.9421 49.408V68.0002H56.5891V49.5294L58.0312 49.534Z"/>
</mask>
<path fill-rule="evenodd" clip-rule="evenodd" d="M58.0312 49.534L37.8272 34.3096L17.5254 49.4034L18.9421 49.408V68.0002H56.5891V49.5294L58.0312 49.534Z" fill="#D6F1FF"/>
<path d="M37.8272 34.3096L38.6296 33.2447C38.1571 32.8887 37.5065 32.8866 37.0317 33.2396L37.8272 34.3096ZM58.0312 49.534L58.0269 50.8673C58.6011 50.8692 59.1119 50.5033 59.295 49.9591C59.478 49.4149 59.2922 48.8147 58.8336 48.4692L58.0312 49.534ZM17.5254 49.4034L16.7299 48.3334C16.2691 48.6759 16.0794 49.275 16.2589 49.8203C16.4385 50.3657 16.9469 50.7349 17.5211 50.7367L17.5254 49.4034ZM18.9421 49.408H20.2754C20.2754 48.6733 19.6811 48.077 18.9464 48.0746L18.9421 49.408ZM18.9421 68.0002H17.6087C17.6087 68.7366 18.2057 69.3335 18.9421 69.3335V68.0002ZM56.5891 68.0002V69.3335C57.3255 69.3335 57.9224 68.7366 57.9224 68.0002H56.5891ZM56.5891 49.5294L56.5934 48.196C56.239 48.1949 55.8988 48.3349 55.6478 48.585C55.3968 48.8352 55.2558 49.175 55.2558 49.5294H56.5891ZM37.0248 35.3744L57.2288 50.5989L58.8336 48.4692L38.6296 33.2447L37.0248 35.3744ZM18.3209 50.4734L38.6227 35.3796L37.0317 33.2396L16.7299 48.3334L18.3209 50.4734ZM18.9464 48.0746L17.5297 48.0701L17.5211 50.7367L18.9378 50.7413L18.9464 48.0746ZM20.2754 68.0002V49.408H17.6087V68.0002H20.2754ZM56.5891 66.6669H18.9421V69.3335H56.5891V66.6669ZM55.2558 49.5294V68.0002H57.9224V49.5294H55.2558ZM58.0355 48.2007L56.5934 48.196L56.5848 50.8627L58.0269 50.8673L58.0355 48.2007Z" fill="#32AAEE" mask="url(#path-1-inside-1_1_4014)"/>
</g>
<path id="Rectangle 52" d="M26.4707 37.8823H22.706V45.7882H25.1374C25.8738 45.7882 26.4707 45.1913 26.4707 44.4549V37.8823Z" fill="#32AAEE"/>
<path id="Subtract" fill-rule="evenodd" clip-rule="evenodd" d="M39.02 46.439H36.5102V47.819C35.7092 47.9816 34.9635 48.2968 34.3049 48.733L33.3289 47.757L31.5542 49.5317L32.5302 50.5076C32.0939 51.1663 31.7786 51.9121 31.6159 52.7133H30.2363L30.2363 55.2231H31.616C31.7724 55.9934 32.0698 56.7124 32.4803 57.352L31.4901 58.3421L33.2648 60.1168L34.2293 59.1523C34.9062 59.6148 35.6783 59.9483 36.5102 60.1171V61.4978H39.02V60.117C39.8212 59.9544 40.5668 59.6391 41.2254 59.2029L42.2024 60.1799L43.9771 58.4052L43.0001 57.4281C43.4362 56.7696 43.7513 56.0241 43.9139 55.2231H45.2952V52.7133H43.914C43.7452 51.8814 43.4117 51.1093 42.9492 50.4324L43.913 49.4686L42.1383 47.6939L41.1489 48.6833C40.5093 48.2729 39.7903 47.9755 39.02 47.8191V46.439ZM37.7654 56.4783C39.1516 56.4783 40.2752 55.3547 40.2752 53.9685C40.2752 52.5824 39.1516 51.4587 37.7654 51.4587C36.3793 51.4587 35.2556 52.5824 35.2556 53.9685C35.2556 55.3547 36.3793 56.4783 37.7654 56.4783Z" fill="#32AAEE"/>
</g>
</g>
<rect id="Rectangle 5" x="42.196" y="42.3141" width="55.1373" height="36.3137" rx="0.666667" fill="#D6F1FF" stroke="#32AAEE" stroke-width="1.33333" stroke-linejoin="round"/>
<g id="Group 45">
<line id="Line 2" x1="53.0909" y1="49.1763" x2="53.0909" y2="71.7645" stroke="#32AAEE" stroke-width="0.533333"/>
<line id="Line 3" x1="64.3848" y1="49.1763" x2="64.3848" y2="71.7645" stroke="#32AAEE" stroke-width="0.533333"/>
<line id="Line 4" x1="75.6788" y1="49.1763" x2="75.6788" y2="71.7645" stroke="#32AAEE" stroke-width="0.533333"/>
<line id="Line 5" x1="86.9727" y1="49.1763" x2="86.9727" y2="71.7645" stroke="#32AAEE" stroke-width="0.533333"/>
<circle id="Ellipse 5" cx="52.8233" cy="56.7056" r="3.76471" fill="#32AAEE"/>
<circle id="Ellipse 6" cx="64.1172" cy="67.9996" r="3.76471" fill="#32AAEE"/>
<circle id="Ellipse 7" cx="75.4112" cy="52.941" r="3.76471" fill="#32AAEE"/>
<circle id="Ellipse 8" cx="86.7061" cy="60.4708" r="3.76471" fill="#32AAEE"/>
</g>
</g>
</svg>
