<svg width="113" height="114" viewBox="0 0 113 114" fill="none" xmlns="http://www.w3.org/2000/svg">
<g id="4">
<g id="Group 9">
<g id="Group 8">
<rect id="Rectangle 10" x="57.196" y="27.2546" width="32.549" height="51.3725" fill="#D6F1FF" stroke="#32AAEE" stroke-width="1.33333"/>
<g id="Group 7">
<rect id="Rectangle 17" x="64.0586" y="33.6157" width="18.8235" height="1.75686" fill="#32AAEE"/>
<rect id="Rectangle 20" x="64.0586" y="44.1572" width="18.8235" height="1.75686" fill="#32AAEE"/>
<rect id="Rectangle 18" x="64.0586" y="38.8867" width="18.8235" height="1.75686" fill="#32AAEE"/>
<rect id="Rectangle 19" x="64.0586" y="51.1841" width="11.2941" height="1.75686" fill="#32AAEE"/>
</g>
</g>
<g id="Union">
<mask id="path-6-inside-1_1_3995" fill="white">
<path fill-rule="evenodd" clip-rule="evenodd" d="M32.9361 79.192C32.3625 79.2589 31.7761 79.2935 31.1799 79.2935C24.3879 79.2935 18.8818 74.7988 18.8818 69.2543C18.8818 64.0611 23.7122 59.7889 29.9054 59.2684C31.6389 53.4682 37.8448 49.1763 45.235 49.1763C53.9675 49.1763 61.0467 55.1692 61.0467 62.5618H61.0471C66.8688 62.5618 71.5883 66.3074 71.5883 70.9279C71.5883 75.5483 66.8688 79.2939 61.0471 79.2939C61.0467 79.2939 61.0463 79.2939 61.0459 79.2939V79.2942H32.9361V79.192Z"/>
</mask>
<path fill-rule="evenodd" clip-rule="evenodd" d="M32.9361 79.192C32.3625 79.2589 31.7761 79.2935 31.1799 79.2935C24.3879 79.2935 18.8818 74.7988 18.8818 69.2543C18.8818 64.0611 23.7122 59.7889 29.9054 59.2684C31.6389 53.4682 37.8448 49.1763 45.235 49.1763C53.9675 49.1763 61.0467 55.1692 61.0467 62.5618H61.0471C66.8688 62.5618 71.5883 66.3074 71.5883 70.9279C71.5883 75.5483 66.8688 79.2939 61.0471 79.2939C61.0467 79.2939 61.0463 79.2939 61.0459 79.2939V79.2942H32.9361V79.192Z" fill="#D6F1FF"/>
<path d="M32.9361 79.192H34.2694V77.6939L32.7815 77.8676L32.9361 79.192ZM29.9054 59.2684L30.0171 60.597L30.9227 60.5209L31.1829 59.6502L29.9054 59.2684ZM61.0467 62.5618L59.7134 62.5618L59.7134 63.8952H61.0467V62.5618ZM61.0459 79.2939V77.9605H59.7125V79.2939H61.0459ZM61.0459 79.2942V80.6275H62.3792V79.2942H61.0459ZM32.9361 79.2942H31.6027V80.6275H32.9361V79.2942ZM32.7815 77.8676C32.2592 77.9286 31.7245 77.9602 31.1799 77.9602V80.6269C31.8278 80.6269 32.4657 80.5892 33.0906 80.5163L32.7815 77.8676ZM31.1799 77.9602C24.8585 77.9602 20.2152 73.8223 20.2152 69.2543H17.5485C17.5485 75.7754 23.9172 80.6269 31.1799 80.6269V77.9602ZM20.2152 69.2543C20.2152 64.9712 24.2748 61.0796 30.0171 60.597L29.7937 57.9397C23.1496 58.4981 17.5485 63.1511 17.5485 69.2543H20.2152ZM31.1829 59.6502C32.7162 54.5199 38.3165 50.5096 45.235 50.5096V47.8429C37.3731 47.8429 30.5616 52.4166 28.6279 58.8866L31.1829 59.6502ZM45.235 50.5096C53.448 50.5096 59.7134 56.1051 59.7134 62.5618L62.3801 62.5618C62.38 54.2332 54.4871 47.8429 45.235 47.8429V50.5096ZM61.0467 63.8952H61.0471V61.2285H61.0467V63.8952ZM61.0471 63.8952C66.4363 63.8952 70.2549 67.3147 70.2549 70.9279H72.9216C72.9216 65.3002 67.3014 61.2285 61.0471 61.2285V63.8952ZM70.2549 70.9279C70.2549 74.541 66.4363 77.9605 61.0471 77.9605V80.6272C67.3014 80.6272 72.9216 76.5555 72.9216 70.9279H70.2549ZM61.0471 77.9605C61.0471 77.9605 61.0471 77.9605 61.0471 77.9605C61.0471 77.9605 61.0471 77.9605 61.0471 77.9605C61.0471 77.9605 61.0471 77.9605 61.0471 77.9605H61.0471C61.0471 77.9605 61.0471 77.9605 61.0471 77.9605C61.0471 77.9605 61.0471 77.9605 61.0471 77.9605C61.0471 77.9605 61.0471 77.9605 61.0471 77.9605C61.0471 77.9605 61.0471 77.9605 61.0471 77.9605H61.0471C61.0471 77.9605 61.0471 77.9605 61.0471 77.9605H61.0471C61.047 77.9605 61.047 77.9605 61.047 77.9605C61.047 77.9605 61.047 77.9605 61.047 77.9605H61.047C61.047 77.9605 61.047 77.9605 61.047 77.9605H61.047C61.047 77.9605 61.047 77.9605 61.047 77.9605C61.047 77.9605 61.047 77.9605 61.047 77.9605H61.047C61.047 77.9605 61.047 77.9605 61.047 77.9605H61.047C61.047 77.9605 61.047 77.9605 61.047 77.9605C61.047 77.9605 61.047 77.9605 61.047 77.9605H61.047C61.047 77.9605 61.047 77.9605 61.047 77.9605H61.047C61.047 77.9605 61.047 77.9605 61.047 77.9605C61.047 77.9605 61.047 77.9605 61.047 77.9605H61.047C61.047 77.9605 61.047 77.9605 61.047 77.9605H61.047C61.047 77.9605 61.047 77.9605 61.047 77.9605C61.047 77.9605 61.047 77.9605 61.047 77.9605H61.047C61.047 77.9605 61.047 77.9605 61.047 77.9605H61.047C61.047 77.9605 61.047 77.9605 61.047 77.9605C61.047 77.9605 61.047 77.9605 61.0469 77.9605C61.0469 77.9605 61.0469 77.9605 61.0469 77.9605C61.0469 77.9605 61.0469 77.9605 61.0469 77.9605H61.0469C61.0469 77.9605 61.0469 77.9605 61.0469 77.9605C61.0469 77.9605 61.0469 77.9605 61.0469 77.9605C61.0469 77.9605 61.0469 77.9605 61.0469 77.9605C61.0469 77.9605 61.0469 77.9605 61.0469 77.9605H61.0469C61.0469 77.9605 61.0469 77.9605 61.0469 77.9605C61.0469 77.9605 61.0469 77.9605 61.0469 77.9605C61.0469 77.9605 61.0469 77.9605 61.0469 77.9605C61.0469 77.9605 61.0469 77.9605 61.0469 77.9605H61.0469C61.0469 77.9605 61.0469 77.9605 61.0469 77.9605H61.0469C61.0469 77.9605 61.0469 77.9605 61.0469 77.9605C61.0469 77.9605 61.0469 77.9605 61.0469 77.9605H61.0469C61.0469 77.9605 61.0469 77.9605 61.0469 77.9605H61.0469C61.0469 77.9605 61.0469 77.9605 61.0469 77.9605C61.0469 77.9605 61.0469 77.9605 61.0469 77.9605H61.0469C61.0469 77.9605 61.0469 77.9605 61.0469 77.9605H61.0469C61.0468 77.9605 61.0468 77.9605 61.0468 77.9605C61.0468 77.9605 61.0468 77.9605 61.0468 77.9605H61.0468C61.0468 77.9605 61.0468 77.9605 61.0468 77.9605H61.0468C61.0468 77.9605 61.0468 77.9605 61.0468 77.9605C61.0468 77.9605 61.0468 77.9605 61.0468 77.9605H61.0468C61.0468 77.9605 61.0468 77.9605 61.0468 77.9605H61.0468C61.0468 77.9605 61.0468 77.9605 61.0468 77.9605C61.0468 77.9605 61.0468 77.9605 61.0468 77.9605C61.0468 77.9605 61.0468 77.9605 61.0468 77.9605C61.0468 77.9605 61.0468 77.9605 61.0468 77.9605H61.0468C61.0468 77.9605 61.0468 77.9605 61.0468 77.9605C61.0468 77.9605 61.0468 77.9605 61.0468 77.9605C61.0468 77.9605 61.0468 77.9605 61.0468 77.9605C61.0468 77.9605 61.0468 77.9605 61.0468 77.9605H61.0468C61.0468 77.9605 61.0468 77.9605 61.0468 77.9605C61.0468 77.9605 61.0468 77.9605 61.0468 77.9605C61.0468 77.9605 61.0468 77.9605 61.0468 77.9605C61.0468 77.9605 61.0468 77.9605 61.0468 77.9605H61.0468C61.0468 77.9605 61.0468 77.9605 61.0468 77.9605H61.0467C61.0467 77.9605 61.0467 77.9605 61.0467 77.9605C61.0467 77.9605 61.0467 77.9605 61.0467 77.9605H61.0467C61.0467 77.9605 61.0467 77.9605 61.0467 77.9605H61.0467C61.0467 77.9605 61.0467 77.9605 61.0467 77.9605C61.0467 77.9605 61.0467 77.9605 61.0467 77.9605H61.0467C61.0467 77.9605 61.0467 77.9605 61.0467 77.9605H61.0467C61.0467 77.9605 61.0467 77.9605 61.0467 77.9605C61.0467 77.9605 61.0467 77.9605 61.0467 77.9605H61.0467C61.0467 77.9605 61.0467 77.9605 61.0467 77.9605H61.0467C61.0467 77.9605 61.0467 77.9605 61.0467 77.9605C61.0467 77.9605 61.0467 77.9605 61.0467 77.9605H61.0467C61.0467 77.9605 61.0467 77.9605 61.0467 77.9605H61.0467C61.0467 77.9605 61.0467 77.9605 61.0467 77.9605C61.0467 77.9605 61.0467 77.9605 61.0467 77.9605H61.0467C61.0467 77.9605 61.0467 77.9605 61.0467 77.9605H61.0467C61.0466 77.9605 61.0466 77.9605 61.0466 77.9605C61.0466 77.9605 61.0466 77.9605 61.0466 77.9605C61.0466 77.9605 61.0466 77.9605 61.0466 77.9605C61.0466 77.9605 61.0466 77.9605 61.0466 77.9605H61.0466C61.0466 77.9605 61.0466 77.9605 61.0466 77.9605C61.0466 77.9605 61.0466 77.9605 61.0466 77.9605C61.0466 77.9605 61.0466 77.9605 61.0466 77.9605C61.0466 77.9605 61.0466 77.9605 61.0466 77.9605H61.0466C61.0466 77.9605 61.0466 77.9605 61.0466 77.9605C61.0466 77.9605 61.0466 77.9605 61.0466 77.9605C61.0466 77.9605 61.0466 77.9605 61.0466 77.9605C61.0466 77.9605 61.0466 77.9605 61.0466 77.9605H61.0466C61.0466 77.9605 61.0466 77.9605 61.0466 77.9605H61.0466C61.0466 77.9605 61.0466 77.9605 61.0466 77.9605C61.0466 77.9605 61.0466 77.9605 61.0466 77.9605H61.0466C61.0466 77.9605 61.0466 77.9605 61.0466 77.9605H61.0466C61.0466 77.9605 61.0466 77.9605 61.0466 77.9605C61.0466 77.9605 61.0466 77.9605 61.0466 77.9605H61.0466C61.0466 77.9605 61.0466 77.9605 61.0466 77.9605H61.0466C61.0465 77.9605 61.0465 77.9605 61.0465 77.9605C61.0465 77.9605 61.0465 77.9605 61.0465 77.9605H61.0465C61.0465 77.9605 61.0465 77.9605 61.0465 77.9605H61.0465C61.0465 77.9605 61.0465 77.9605 61.0465 77.9605C61.0465 77.9605 61.0465 77.9605 61.0465 77.9605H61.0465C61.0465 77.9605 61.0465 77.9605 61.0465 77.9605H61.0465C61.0465 77.9605 61.0465 77.9605 61.0465 77.9605C61.0465 77.9605 61.0465 77.9605 61.0465 77.9605H61.0465C61.0465 77.9605 61.0465 77.9605 61.0465 77.9605H61.0465C61.0465 77.9605 61.0465 77.9605 61.0465 77.9605C61.0465 77.9605 61.0465 77.9605 61.0465 77.9605C61.0465 77.9605 61.0465 77.9605 61.0465 77.9605C61.0465 77.9605 61.0465 77.9605 61.0465 77.9605H61.0465C61.0465 77.9605 61.0465 77.9605 61.0465 77.9605C61.0465 77.9605 61.0465 77.9605 61.0465 77.9605C61.0465 77.9605 61.0465 77.9605 61.0465 77.9605C61.0465 77.9605 61.0465 77.9605 61.0465 77.9605H61.0465C61.0465 77.9605 61.0465 77.9605 61.0465 77.9605H61.0464C61.0464 77.9605 61.0464 77.9605 61.0464 77.9605C61.0464 77.9605 61.0464 77.9605 61.0464 77.9605H61.0464C61.0464 77.9605 61.0464 77.9605 61.0464 77.9605H61.0464C61.0464 77.9605 61.0464 77.9605 61.0464 77.9605C61.0464 77.9605 61.0464 77.9605 61.0464 77.9605H61.0464C61.0464 77.9605 61.0464 77.9605 61.0464 77.9605H61.0464C61.0464 77.9605 61.0464 77.9605 61.0464 77.9605C61.0464 77.9605 61.0464 77.9605 61.0464 77.9605H61.0464C61.0464 77.9605 61.0464 77.9605 61.0464 77.9605H61.0464C61.0464 77.9605 61.0464 77.9605 61.0464 77.9605C61.0464 77.9605 61.0464 77.9605 61.0464 77.9605H61.0464C61.0464 77.9605 61.0464 77.9605 61.0464 77.9605H61.0464C61.0464 77.9605 61.0464 77.9605 61.0464 77.9605C61.0464 77.9605 61.0464 77.9605 61.0464 77.9605H61.0464C61.0464 77.9605 61.0464 77.9605 61.0464 77.9605H61.0464C61.0463 77.9605 61.0463 77.9605 61.0463 77.9605C61.0463 77.9605 61.0463 77.9605 61.0463 77.9605C61.0463 77.9605 61.0463 77.9605 61.0463 77.9605C61.0463 77.9605 61.0463 77.9605 61.0463 77.9605H61.0463C61.0463 77.9605 61.0463 77.9605 61.0463 77.9605C61.0463 77.9605 61.0463 77.9605 61.0463 77.9605C61.0463 77.9605 61.0463 77.9605 61.0463 77.9605C61.0463 77.9605 61.0463 77.9605 61.0463 77.9605H61.0463C61.0463 77.9605 61.0463 77.9605 61.0463 77.9605C61.0463 77.9605 61.0463 77.9605 61.0463 77.9605C61.0463 77.9605 61.0463 77.9605 61.0463 77.9605C61.0463 77.9605 61.0463 77.9605 61.0463 77.9605H61.0463C61.0463 77.9605 61.0463 77.9605 61.0463 77.9605H61.0463C61.0463 77.9605 61.0463 77.9605 61.0463 77.9605C61.0463 77.9605 61.0463 77.9605 61.0463 77.9605H61.0463C61.0463 77.9605 61.0463 77.9605 61.0463 77.9605H61.0463C61.0463 77.9605 61.0463 77.9605 61.0463 77.9605C61.0463 77.9605 61.0463 77.9605 61.0463 77.9605H61.0463C61.0463 77.9605 61.0463 77.9605 61.0463 77.9605H61.0462C61.0462 77.9605 61.0462 77.9605 61.0462 77.9605C61.0462 77.9605 61.0462 77.9605 61.0462 77.9605H61.0462C61.0462 77.9605 61.0462 77.9605 61.0462 77.9605H61.0462C61.0462 77.9605 61.0462 77.9605 61.0462 77.9605C61.0462 77.9605 61.0462 77.9605 61.0462 77.9605H61.0462C61.0462 77.9605 61.0462 77.9605 61.0462 77.9605H61.0462C61.0462 77.9605 61.0462 77.9605 61.0462 77.9605C61.0462 77.9605 61.0462 77.9605 61.0462 77.9605H61.0462C61.0462 77.9605 61.0462 77.9605 61.0462 77.9605H61.0462C61.0462 77.9605 61.0462 77.9605 61.0462 77.9605C61.0462 77.9605 61.0462 77.9605 61.0462 77.9605C61.0462 77.9605 61.0462 77.9605 61.0462 77.9605C61.0462 77.9605 61.0462 77.9605 61.0462 77.9605H61.0462C61.0462 77.9605 61.0462 77.9605 61.0462 77.9605C61.0462 77.9605 61.0462 77.9605 61.0462 77.9605C61.0462 77.9605 61.0462 77.9605 61.0462 77.9605C61.0462 77.9605 61.0462 77.9605 61.0462 77.9605H61.0462C61.0462 77.9605 61.0462 77.9605 61.0462 77.9605C61.0462 77.9605 61.0462 77.9605 61.0461 77.9605C61.0461 77.9605 61.0461 77.9605 61.0461 77.9605C61.0461 77.9605 61.0461 77.9605 61.0461 77.9605H61.0461C61.0461 77.9605 61.0461 77.9605 61.0461 77.9605H61.0461C61.0461 77.9605 61.0461 77.9605 61.0461 77.9605C61.0461 77.9605 61.0461 77.9605 61.0461 77.9605H61.0461C61.0461 77.9605 61.0461 77.9605 61.0461 77.9605H61.0461C61.0461 77.9605 61.0461 77.9605 61.0461 77.9605C61.0461 77.9605 61.0461 77.9605 61.0461 77.9605H61.0461C61.0461 77.9605 61.0461 77.9605 61.0461 77.9605H61.0461C61.0461 77.9605 61.0461 77.9605 61.0461 77.9605C61.0461 77.9605 61.0461 77.9605 61.0461 77.9605H61.0461C61.0461 77.9605 61.0461 77.9605 61.0461 77.9605H61.0461C61.0461 77.9605 61.0461 77.9605 61.0461 77.9605C61.0461 77.9605 61.0461 77.9605 61.0461 77.9605H61.0461C61.0461 77.9605 61.0461 77.9605 61.0461 77.9605H61.0461C61.046 77.9605 61.046 77.9605 61.046 77.9605C61.046 77.9605 61.046 77.9605 61.046 77.9605C61.046 77.9605 61.046 77.9605 61.046 77.9605C61.046 77.9605 61.046 77.9605 61.046 77.9605H61.046C61.046 77.9605 61.046 77.9605 61.046 77.9605C61.046 77.9605 61.046 77.9605 61.046 77.9605C61.046 77.9605 61.046 77.9605 61.046 77.9605C61.046 77.9605 61.046 77.9605 61.046 77.9605H61.046C61.046 77.9605 61.046 77.9605 61.046 77.9605C61.046 77.9605 61.046 77.9605 61.046 77.9605C61.046 77.9605 61.046 77.9605 61.046 77.9605C61.046 77.9605 61.046 77.9605 61.046 77.9605H61.046C61.046 77.9605 61.046 77.9605 61.046 77.9605H61.046C61.046 77.9605 61.046 77.9605 61.046 77.9605C61.046 77.9605 61.046 77.9605 61.046 77.9605H61.046C61.046 77.9605 61.046 77.9605 61.046 77.9605H61.046C61.046 77.9605 61.046 77.9605 61.046 77.9605C61.046 77.9605 61.046 77.9605 61.046 77.9605H61.046C61.046 77.9605 61.046 77.9605 61.046 77.9605H61.0459C61.0459 77.9605 61.0459 77.9605 61.0459 77.9605C61.0459 77.9605 61.0459 77.9605 61.0459 77.9605H61.0459C61.0459 77.9605 61.0459 77.9605 61.0459 77.9605H61.0459C61.0459 77.9605 61.0459 77.9605 61.0459 77.9605C61.0459 77.9605 61.0459 77.9605 61.0459 77.9605H61.0459C61.0459 77.9605 61.0459 77.9605 61.0459 77.9605H61.0459C61.0459 77.9605 61.0459 77.9605 61.0459 77.9605C61.0459 77.9605 61.0459 77.9605 61.0459 77.9605H61.0459C61.0459 77.9605 61.0459 77.9605 61.0459 77.9605H61.0459C61.0459 77.9605 61.0459 77.9605 61.0459 77.9605C61.0459 77.9605 61.0459 77.9605 61.0459 77.9605C61.0459 77.9605 61.0459 77.9605 61.0459 77.9605C61.0459 77.9605 61.0459 77.9605 61.0459 77.9605H61.0459C61.0459 77.9605 61.0459 77.9605 61.0459 77.9605V80.6272C61.0459 80.6272 61.0459 80.6272 61.0459 80.6272H61.0459C61.0459 80.6272 61.0459 80.6272 61.0459 80.6272C61.0459 80.6272 61.0459 80.6272 61.0459 80.6272C61.0459 80.6272 61.0459 80.6272 61.0459 80.6272C61.0459 80.6272 61.0459 80.6272 61.0459 80.6272H61.0459C61.0459 80.6272 61.0459 80.6272 61.0459 80.6272H61.0459C61.0459 80.6272 61.0459 80.6272 61.0459 80.6272C61.0459 80.6272 61.0459 80.6272 61.0459 80.6272H61.0459C61.0459 80.6272 61.0459 80.6272 61.0459 80.6272H61.0459C61.0459 80.6272 61.0459 80.6272 61.0459 80.6272C61.0459 80.6272 61.0459 80.6272 61.0459 80.6272H61.0459C61.0459 80.6272 61.0459 80.6272 61.0459 80.6272H61.0459C61.0459 80.6272 61.0459 80.6272 61.0459 80.6272C61.0459 80.6272 61.0459 80.6272 61.0459 80.6272H61.046C61.046 80.6272 61.046 80.6272 61.046 80.6272H61.046C61.046 80.6272 61.046 80.6272 61.046 80.6272C61.046 80.6272 61.046 80.6272 61.046 80.6272H61.046C61.046 80.6272 61.046 80.6272 61.046 80.6272H61.046C61.046 80.6272 61.046 80.6272 61.046 80.6272C61.046 80.6272 61.046 80.6272 61.046 80.6272H61.046C61.046 80.6272 61.046 80.6272 61.046 80.6272H61.046C61.046 80.6272 61.046 80.6272 61.046 80.6272C61.046 80.6272 61.046 80.6272 61.046 80.6272C61.046 80.6272 61.046 80.6272 61.046 80.6272C61.046 80.6272 61.046 80.6272 61.046 80.6272H61.046C61.046 80.6272 61.046 80.6272 61.046 80.6272C61.046 80.6272 61.046 80.6272 61.046 80.6272C61.046 80.6272 61.046 80.6272 61.046 80.6272C61.046 80.6272 61.046 80.6272 61.046 80.6272H61.046C61.046 80.6272 61.046 80.6272 61.046 80.6272C61.046 80.6272 61.046 80.6272 61.046 80.6272C61.046 80.6272 61.046 80.6272 61.046 80.6272C61.046 80.6272 61.046 80.6272 61.0461 80.6272H61.0461C61.0461 80.6272 61.0461 80.6272 61.0461 80.6272H61.0461C61.0461 80.6272 61.0461 80.6272 61.0461 80.6272C61.0461 80.6272 61.0461 80.6272 61.0461 80.6272H61.0461C61.0461 80.6272 61.0461 80.6272 61.0461 80.6272H61.0461C61.0461 80.6272 61.0461 80.6272 61.0461 80.6272C61.0461 80.6272 61.0461 80.6272 61.0461 80.6272H61.0461C61.0461 80.6272 61.0461 80.6272 61.0461 80.6272H61.0461C61.0461 80.6272 61.0461 80.6272 61.0461 80.6272C61.0461 80.6272 61.0461 80.6272 61.0461 80.6272H61.0461C61.0461 80.6272 61.0461 80.6272 61.0461 80.6272H61.0461C61.0461 80.6272 61.0461 80.6272 61.0461 80.6272C61.0461 80.6272 61.0461 80.6272 61.0461 80.6272H61.0461C61.0461 80.6272 61.0461 80.6272 61.0461 80.6272H61.0461C61.0461 80.6272 61.0461 80.6272 61.0461 80.6272C61.0461 80.6272 61.0461 80.6272 61.0461 80.6272C61.0462 80.6272 61.0462 80.6272 61.0462 80.6272C61.0462 80.6272 61.0462 80.6272 61.0462 80.6272H61.0462C61.0462 80.6272 61.0462 80.6272 61.0462 80.6272C61.0462 80.6272 61.0462 80.6272 61.0462 80.6272C61.0462 80.6272 61.0462 80.6272 61.0462 80.6272C61.0462 80.6272 61.0462 80.6272 61.0462 80.6272H61.0462C61.0462 80.6272 61.0462 80.6272 61.0462 80.6272C61.0462 80.6272 61.0462 80.6272 61.0462 80.6272C61.0462 80.6272 61.0462 80.6272 61.0462 80.6272C61.0462 80.6272 61.0462 80.6272 61.0462 80.6272H61.0462C61.0462 80.6272 61.0462 80.6272 61.0462 80.6272H61.0462C61.0462 80.6272 61.0462 80.6272 61.0462 80.6272C61.0462 80.6272 61.0462 80.6272 61.0462 80.6272H61.0462C61.0462 80.6272 61.0462 80.6272 61.0462 80.6272H61.0462C61.0462 80.6272 61.0462 80.6272 61.0462 80.6272C61.0462 80.6272 61.0462 80.6272 61.0462 80.6272H61.0462C61.0462 80.6272 61.0462 80.6272 61.0462 80.6272H61.0462C61.0462 80.6272 61.0462 80.6272 61.0462 80.6272C61.0462 80.6272 61.0462 80.6272 61.0462 80.6272H61.0463C61.0463 80.6272 61.0463 80.6272 61.0463 80.6272H61.0463C61.0463 80.6272 61.0463 80.6272 61.0463 80.6272C61.0463 80.6272 61.0463 80.6272 61.0463 80.6272H61.0463C61.0463 80.6272 61.0463 80.6272 61.0463 80.6272H61.0463C61.0463 80.6272 61.0463 80.6272 61.0463 80.6272C61.0463 80.6272 61.0463 80.6272 61.0463 80.6272H61.0463C61.0463 80.6272 61.0463 80.6272 61.0463 80.6272H61.0463C61.0463 80.6272 61.0463 80.6272 61.0463 80.6272C61.0463 80.6272 61.0463 80.6272 61.0463 80.6272C61.0463 80.6272 61.0463 80.6272 61.0463 80.6272C61.0463 80.6272 61.0463 80.6272 61.0463 80.6272H61.0463C61.0463 80.6272 61.0463 80.6272 61.0463 80.6272C61.0463 80.6272 61.0463 80.6272 61.0463 80.6272C61.0463 80.6272 61.0463 80.6272 61.0463 80.6272C61.0463 80.6272 61.0463 80.6272 61.0463 80.6272H61.0463C61.0463 80.6272 61.0463 80.6272 61.0463 80.6272C61.0463 80.6272 61.0463 80.6272 61.0463 80.6272C61.0463 80.6272 61.0463 80.6272 61.0463 80.6272C61.0463 80.6272 61.0463 80.6272 61.0464 80.6272H61.0464C61.0464 80.6272 61.0464 80.6272 61.0464 80.6272H61.0464C61.0464 80.6272 61.0464 80.6272 61.0464 80.6272C61.0464 80.6272 61.0464 80.6272 61.0464 80.6272H61.0464C61.0464 80.6272 61.0464 80.6272 61.0464 80.6272H61.0464C61.0464 80.6272 61.0464 80.6272 61.0464 80.6272C61.0464 80.6272 61.0464 80.6272 61.0464 80.6272H61.0464C61.0464 80.6272 61.0464 80.6272 61.0464 80.6272H61.0464C61.0464 80.6272 61.0464 80.6272 61.0464 80.6272C61.0464 80.6272 61.0464 80.6272 61.0464 80.6272H61.0464C61.0464 80.6272 61.0464 80.6272 61.0464 80.6272H61.0464C61.0464 80.6272 61.0464 80.6272 61.0464 80.6272C61.0464 80.6272 61.0464 80.6272 61.0464 80.6272H61.0464C61.0464 80.6272 61.0464 80.6272 61.0464 80.6272H61.0464C61.0464 80.6272 61.0464 80.6272 61.0464 80.6272C61.0464 80.6272 61.0464 80.6272 61.0464 80.6272H61.0465C61.0465 80.6272 61.0465 80.6272 61.0465 80.6272H61.0465C61.0465 80.6272 61.0465 80.6272 61.0465 80.6272C61.0465 80.6272 61.0465 80.6272 61.0465 80.6272C61.0465 80.6272 61.0465 80.6272 61.0465 80.6272C61.0465 80.6272 61.0465 80.6272 61.0465 80.6272H61.0465C61.0465 80.6272 61.0465 80.6272 61.0465 80.6272C61.0465 80.6272 61.0465 80.6272 61.0465 80.6272C61.0465 80.6272 61.0465 80.6272 61.0465 80.6272C61.0465 80.6272 61.0465 80.6272 61.0465 80.6272H61.0465C61.0465 80.6272 61.0465 80.6272 61.0465 80.6272H61.0465C61.0465 80.6272 61.0465 80.6272 61.0465 80.6272C61.0465 80.6272 61.0465 80.6272 61.0465 80.6272H61.0465C61.0465 80.6272 61.0465 80.6272 61.0465 80.6272H61.0465C61.0465 80.6272 61.0465 80.6272 61.0465 80.6272C61.0465 80.6272 61.0465 80.6272 61.0465 80.6272H61.0465C61.0465 80.6272 61.0465 80.6272 61.0465 80.6272H61.0465C61.0465 80.6272 61.0465 80.6272 61.0465 80.6272C61.0465 80.6272 61.0465 80.6272 61.0466 80.6272H61.0466C61.0466 80.6272 61.0466 80.6272 61.0466 80.6272H61.0466C61.0466 80.6272 61.0466 80.6272 61.0466 80.6272C61.0466 80.6272 61.0466 80.6272 61.0466 80.6272H61.0466C61.0466 80.6272 61.0466 80.6272 61.0466 80.6272H61.0466C61.0466 80.6272 61.0466 80.6272 61.0466 80.6272C61.0466 80.6272 61.0466 80.6272 61.0466 80.6272H61.0466C61.0466 80.6272 61.0466 80.6272 61.0466 80.6272H61.0466C61.0466 80.6272 61.0466 80.6272 61.0466 80.6272C61.0466 80.6272 61.0466 80.6272 61.0466 80.6272C61.0466 80.6272 61.0466 80.6272 61.0466 80.6272C61.0466 80.6272 61.0466 80.6272 61.0466 80.6272H61.0466C61.0466 80.6272 61.0466 80.6272 61.0466 80.6272C61.0466 80.6272 61.0466 80.6272 61.0466 80.6272C61.0466 80.6272 61.0466 80.6272 61.0466 80.6272C61.0466 80.6272 61.0466 80.6272 61.0466 80.6272H61.0466C61.0466 80.6272 61.0466 80.6272 61.0466 80.6272C61.0466 80.6272 61.0466 80.6272 61.0466 80.6272C61.0466 80.6272 61.0466 80.6272 61.0466 80.6272C61.0466 80.6272 61.0466 80.6272 61.0467 80.6272H61.0467C61.0467 80.6272 61.0467 80.6272 61.0467 80.6272H61.0467C61.0467 80.6272 61.0467 80.6272 61.0467 80.6272C61.0467 80.6272 61.0467 80.6272 61.0467 80.6272H61.0467C61.0467 80.6272 61.0467 80.6272 61.0467 80.6272H61.0467C61.0467 80.6272 61.0467 80.6272 61.0467 80.6272C61.0467 80.6272 61.0467 80.6272 61.0467 80.6272H61.0467C61.0467 80.6272 61.0467 80.6272 61.0467 80.6272H61.0467C61.0467 80.6272 61.0467 80.6272 61.0467 80.6272C61.0467 80.6272 61.0467 80.6272 61.0467 80.6272H61.0467C61.0467 80.6272 61.0467 80.6272 61.0467 80.6272H61.0467C61.0467 80.6272 61.0467 80.6272 61.0467 80.6272C61.0467 80.6272 61.0467 80.6272 61.0467 80.6272H61.0467C61.0467 80.6272 61.0467 80.6272 61.0467 80.6272H61.0467C61.0467 80.6272 61.0467 80.6272 61.0467 80.6272C61.0467 80.6272 61.0467 80.6272 61.0467 80.6272H61.0468C61.0468 80.6272 61.0468 80.6272 61.0468 80.6272H61.0468C61.0468 80.6272 61.0468 80.6272 61.0468 80.6272C61.0468 80.6272 61.0468 80.6272 61.0468 80.6272C61.0468 80.6272 61.0468 80.6272 61.0468 80.6272C61.0468 80.6272 61.0468 80.6272 61.0468 80.6272H61.0468C61.0468 80.6272 61.0468 80.6272 61.0468 80.6272C61.0468 80.6272 61.0468 80.6272 61.0468 80.6272C61.0468 80.6272 61.0468 80.6272 61.0468 80.6272C61.0468 80.6272 61.0468 80.6272 61.0468 80.6272H61.0468C61.0468 80.6272 61.0468 80.6272 61.0468 80.6272C61.0468 80.6272 61.0468 80.6272 61.0468 80.6272C61.0468 80.6272 61.0468 80.6272 61.0468 80.6272C61.0468 80.6272 61.0468 80.6272 61.0468 80.6272H61.0468C61.0468 80.6272 61.0468 80.6272 61.0468 80.6272H61.0468C61.0468 80.6272 61.0468 80.6272 61.0468 80.6272C61.0468 80.6272 61.0468 80.6272 61.0468 80.6272H61.0468C61.0468 80.6272 61.0468 80.6272 61.0468 80.6272H61.0468C61.0468 80.6272 61.0468 80.6272 61.0468 80.6272C61.0468 80.6272 61.0468 80.6272 61.0469 80.6272H61.0469C61.0469 80.6272 61.0469 80.6272 61.0469 80.6272H61.0469C61.0469 80.6272 61.0469 80.6272 61.0469 80.6272C61.0469 80.6272 61.0469 80.6272 61.0469 80.6272H61.0469C61.0469 80.6272 61.0469 80.6272 61.0469 80.6272H61.0469C61.0469 80.6272 61.0469 80.6272 61.0469 80.6272C61.0469 80.6272 61.0469 80.6272 61.0469 80.6272H61.0469C61.0469 80.6272 61.0469 80.6272 61.0469 80.6272H61.0469C61.0469 80.6272 61.0469 80.6272 61.0469 80.6272C61.0469 80.6272 61.0469 80.6272 61.0469 80.6272C61.0469 80.6272 61.0469 80.6272 61.0469 80.6272C61.0469 80.6272 61.0469 80.6272 61.0469 80.6272H61.0469C61.0469 80.6272 61.0469 80.6272 61.0469 80.6272C61.0469 80.6272 61.0469 80.6272 61.0469 80.6272C61.0469 80.6272 61.0469 80.6272 61.0469 80.6272C61.0469 80.6272 61.0469 80.6272 61.0469 80.6272H61.0469C61.0469 80.6272 61.0469 80.6272 61.0469 80.6272C61.0469 80.6272 61.0469 80.6272 61.0469 80.6272C61.047 80.6272 61.047 80.6272 61.047 80.6272C61.047 80.6272 61.047 80.6272 61.047 80.6272H61.047C61.047 80.6272 61.047 80.6272 61.047 80.6272H61.047C61.047 80.6272 61.047 80.6272 61.047 80.6272C61.047 80.6272 61.047 80.6272 61.047 80.6272H61.047C61.047 80.6272 61.047 80.6272 61.047 80.6272H61.047C61.047 80.6272 61.047 80.6272 61.047 80.6272C61.047 80.6272 61.047 80.6272 61.047 80.6272H61.047C61.047 80.6272 61.047 80.6272 61.047 80.6272H61.047C61.047 80.6272 61.047 80.6272 61.047 80.6272C61.047 80.6272 61.047 80.6272 61.047 80.6272H61.047C61.047 80.6272 61.047 80.6272 61.047 80.6272H61.047C61.047 80.6272 61.047 80.6272 61.047 80.6272C61.047 80.6272 61.047 80.6272 61.047 80.6272H61.047C61.047 80.6272 61.047 80.6272 61.047 80.6272H61.047C61.047 80.6272 61.047 80.6272 61.047 80.6272C61.047 80.6272 61.047 80.6272 61.0471 80.6272H61.0471C61.0471 80.6272 61.0471 80.6272 61.0471 80.6272H61.0471C61.0471 80.6272 61.0471 80.6272 61.0471 80.6272C61.0471 80.6272 61.0471 80.6272 61.0471 80.6272C61.0471 80.6272 61.0471 80.6272 61.0471 80.6272C61.0471 80.6272 61.0471 80.6272 61.0471 80.6272H61.0471C61.0471 80.6272 61.0471 80.6272 61.0471 80.6272C61.0471 80.6272 61.0471 80.6272 61.0471 80.6272C61.0471 80.6272 61.0471 80.6272 61.0471 80.6272V77.9605ZM59.7125 79.2939V79.2942H62.3792V79.2939H59.7125ZM61.0459 77.9609H32.9361V80.6275H61.0459V77.9609ZM34.2694 79.2942V79.192H31.6027V79.2942H34.2694Z" fill="#32AAEE" mask="url(#path-6-inside-1_1_3995)"/>
</g>
</g>
<g id="Group 10">
<path id="Vector 5" d="M34.8075 49.3978C35.1485 49.9196 35.8032 50.1022 36.2699 49.8058L43.8745 44.9756C44.3412 44.6792 44.443 44.016 44.1021 43.4942C43.7611 42.9725 43.1063 42.7899 42.6397 43.0863L35.88 47.3798L30.9407 39.8226C30.5997 39.3009 29.945 39.1182 29.4784 39.4146C29.0117 39.7111 28.9098 40.3743 29.2508 40.896L34.8075 49.3978ZM52.856 30.5244C53.4318 30.5406 53.8577 30.0675 53.8072 29.4677C53.7568 28.8679 53.2492 28.3685 52.6735 28.3522L52.856 30.5244ZM36.6865 49.1496C37.1766 45.9591 38.5998 41.1699 41.2486 37.2422C43.8943 33.319 47.6696 30.3783 52.856 30.5244L52.6735 28.3522C46.6056 28.1813 42.3321 31.6489 39.489 35.8648C36.6489 40.0761 35.1431 45.1569 34.6184 48.5727L36.6865 49.1496Z" fill="#32AAEE"/>
</g>
<g id="Group 11">
<path id="Vector 5_2" d="M83.5073 54.6058C83.1824 54.1143 82.5207 53.9793 82.0293 54.3042L74.0211 59.5984C73.5296 59.9233 73.3946 60.5851 73.7195 61.0765C74.0444 61.5679 74.7061 61.7029 75.1976 61.378L82.316 56.6721L87.0219 63.7905C87.3468 64.2819 88.0086 64.4169 88.5 64.092C88.9914 63.7671 89.1264 63.1054 88.8015 62.614L83.5073 54.6058ZM64.0151 74.6052C63.4265 74.6289 62.9685 75.1252 62.9921 75.7138C63.0158 76.3025 63.5121 76.7605 64.1008 76.7368L64.0151 74.6052ZM81.5724 54.9808C80.9189 58.1838 79.2283 63.0396 76.3124 67.1248C73.4 71.2051 69.3656 74.3902 64.0151 74.6052L64.1008 76.7368C70.3508 76.4857 74.9198 72.748 78.0488 68.3642C81.1742 63.9854 82.9632 58.8357 83.6626 55.4072L81.5724 54.9808Z" fill="#32AAEE"/>
</g>
</g>
</svg>
