<svg width="114" height="114" viewBox="0 0 114 114" fill="none" xmlns="http://www.w3.org/2000/svg">
<g id="3">
<g id="Group 14">
<g id="Group 13">
<g id="Union">
<mask id="path-1-inside-1_1_3976" fill="white">
<path fill-rule="evenodd" clip-rule="evenodd" d="M35.999 35.5106C35.999 34.7742 36.596 34.1772 37.3324 34.1772H79.8422C80.5785 34.1772 81.1755 34.7742 81.1755 35.5106L81.1755 71.8241L81.1755 75.589L81.1755 78.0202C81.1755 78.7565 80.5785 79.3535 79.8422 79.3535H76.3127C74.84 79.3535 73.6461 78.1596 73.6461 76.6868V75.589H43.5284V76.6868C43.5284 78.1596 42.3345 79.3535 40.8618 79.3535H37.3324C36.596 79.3535 35.999 78.7565 35.999 78.0202V75.589V71.8241V35.5106Z"/>
</mask>
<path fill-rule="evenodd" clip-rule="evenodd" d="M35.999 35.5106C35.999 34.7742 36.596 34.1772 37.3324 34.1772H79.8422C80.5785 34.1772 81.1755 34.7742 81.1755 35.5106L81.1755 71.8241L81.1755 75.589L81.1755 78.0202C81.1755 78.7565 80.5785 79.3535 79.8422 79.3535H76.3127C74.84 79.3535 73.6461 78.1596 73.6461 76.6868V75.589H43.5284V76.6868C43.5284 78.1596 42.3345 79.3535 40.8618 79.3535H37.3324C36.596 79.3535 35.999 78.7565 35.999 78.0202V75.589V71.8241V35.5106Z" fill="#D6F1FF"/>
<path d="M81.1755 35.5106L82.5088 35.5106V35.5106H81.1755ZM81.1755 71.8241H79.8422V71.8241L81.1755 71.8241ZM81.1755 75.589L82.5088 75.589V75.589H81.1755ZM81.1755 78.0202H79.8422H81.1755ZM73.6461 75.589H74.9794V74.2557H73.6461V75.589ZM43.5284 75.589V74.2557H42.1951V75.589H43.5284ZM37.3324 32.8439C35.8596 32.8439 34.6657 34.0378 34.6657 35.5106H37.3324V35.5106V32.8439ZM79.8422 32.8439H37.3324V35.5106H79.8422V32.8439ZM82.5088 35.5106C82.5088 34.0378 81.3149 32.8439 79.8422 32.8439V35.5106V35.5106H82.5088ZM82.5088 71.8241L82.5088 35.5106L79.8422 35.5106L79.8422 71.8241H82.5088ZM82.5088 75.589L82.5088 71.8241L79.8422 71.8241L79.8422 75.589L82.5088 75.589ZM82.5088 78.0202L82.5088 75.589L79.8422 75.589L79.8422 78.0202L82.5088 78.0202ZM79.8422 80.6868C81.3149 80.6868 82.5088 79.4929 82.5088 78.0202H79.8422V80.6868ZM76.3127 80.6868H79.8422V78.0202H76.3127V80.6868ZM72.3127 76.6868C72.3127 78.896 74.1036 80.6868 76.3127 80.6868V78.0202C75.5764 78.0202 74.9794 77.4232 74.9794 76.6868H72.3127ZM72.3127 75.589V76.6868H74.9794V75.589H72.3127ZM43.5284 76.9223H73.6461V74.2557H43.5284V76.9223ZM44.8618 76.6868V75.589H42.1951V76.6868H44.8618ZM40.8618 80.6868C43.0709 80.6868 44.8618 78.896 44.8618 76.6868H42.1951C42.1951 77.4232 41.5981 78.0202 40.8618 78.0202V80.6868ZM37.3324 80.6868H40.8618V78.0202H37.3324V80.6868ZM34.6657 78.0202C34.6657 79.4929 35.8596 80.6868 37.3324 80.6868V78.0202H37.3324H34.6657ZM34.6657 75.589V78.0202H37.3324V75.589H34.6657ZM34.6657 71.8241V75.589H37.3324V71.8241H34.6657ZM34.6657 35.5106V71.8241H37.3324V35.5106H34.6657Z" fill="#32AAEE" mask="url(#path-1-inside-1_1_3976)"/>
</g>
<g id="Group 12">
<path id="Union_2" fill-rule="evenodd" clip-rule="evenodd" d="M53.7281 50.8494H63.4483C63.0266 48.5484 61.011 46.8045 58.5882 46.8045C56.1653 46.8045 54.1497 48.5484 53.7281 50.8494ZM52.3772 50.8494H50.5091C49.7727 50.8494 49.1758 51.4464 49.1758 52.1827V62.9615C49.1758 63.6978 49.7727 64.2948 50.5091 64.2948H66.666C67.4024 64.2948 67.9993 63.6978 67.9993 62.9615V52.1827C67.9993 51.4464 67.4024 50.8494 66.666 50.8494H64.7991C64.3642 47.8087 61.7492 45.4712 58.5882 45.4712C55.4272 45.4712 52.8121 47.8087 52.3772 50.8494Z" fill="#32AAEE"/>
<path id="Union_3" fill-rule="evenodd" clip-rule="evenodd" d="M59.3719 59.4547C60.2857 59.1316 60.9403 58.2601 60.9403 57.2358C60.9403 55.9363 59.8868 54.8828 58.5873 54.8828C57.2878 54.8828 56.2344 55.9363 56.2344 57.2358C56.2344 58.2604 56.8893 59.132 57.8033 59.4549V61.157H59.3719V59.4547Z" fill="#D6F1FF"/>
</g>
</g>
<g id="Group 6">
<path id="Subtract" fill-rule="evenodd" clip-rule="evenodd" d="M83.6148 58.4986C83.6973 57.7669 84.3573 57.2405 85.0891 57.323C89.6457 57.8363 92.6115 58.327 94.4518 58.9637C95.3755 59.2833 96.1602 59.6861 96.7172 60.2668C97.3275 60.9029 97.5672 61.6487 97.5672 62.4126C97.5672 63.4466 96.8742 64.1738 96.2573 64.626C95.6039 65.105 94.7248 65.5113 93.7211 65.8673C91.6973 66.585 88.843 67.2085 85.4051 67.7242C78.5088 68.7586 69.0278 69.3929 58.5868 69.3929C48.1459 69.3929 38.6649 68.7586 31.7686 67.7242C28.3307 67.2085 25.4764 66.585 23.4526 65.8673C22.4489 65.5113 21.5698 65.105 20.9164 64.626C20.2994 64.1737 19.6064 63.4465 19.6064 62.4125C19.6064 61.3536 20.2691 60.5424 20.986 59.9892C21.7247 59.4193 22.7337 58.9476 23.9283 58.567C26.331 57.8014 29.7724 57.3145 34.1162 57.3145H35.4496V59.9812H34.1162C29.9403 59.9812 26.7934 60.4528 24.7378 61.1078C23.7033 61.4374 23.0156 61.7914 22.615 62.1005C22.4764 62.2074 22.392 62.2923 22.3411 62.3533C22.3782 62.3867 22.4277 62.4274 22.4929 62.4752C22.8424 62.7315 23.4426 63.0343 24.3439 63.354C26.1302 63.9875 28.7892 64.5808 32.1641 65.087C38.8934 66.0964 48.2359 66.7262 58.5868 66.7262C68.9378 66.7262 78.2803 66.0964 85.0095 65.087C88.3844 64.5808 91.0434 63.9875 92.8297 63.354C93.731 63.0344 94.3312 62.7315 94.6808 62.4753C94.7905 62.3948 94.8556 62.3345 94.8926 62.2952C94.8793 62.2167 94.8485 62.1708 94.7929 62.1128C94.661 61.9754 94.3368 61.7457 93.5799 61.4838C92.0592 60.9577 89.3779 60.4897 84.7905 59.9729C84.0587 59.8904 83.5324 59.2304 83.6148 58.4986ZM94.9361 62.2408C94.9364 62.2408 94.935 62.2435 94.9313 62.249C94.934 62.2435 94.9359 62.2408 94.9361 62.2408ZM22.2375 62.2408C22.2378 62.2407 22.2396 62.2435 22.2424 62.2489C22.2387 62.2435 22.2373 62.2408 22.2375 62.2408ZM22.2679 62.464C22.2674 62.466 22.267 62.467 22.267 62.467C22.2669 62.467 22.2672 62.466 22.2679 62.464Z" fill="#32AAEE"/>
<path id="Vector" d="M88.4442 64.0719C88.6181 63.9231 88.7051 63.7469 88.7051 63.5433C88.7051 63.3398 88.6181 63.1638 88.4442 63.0154L83.6855 58.648L88.4616 54.2807C88.6239 54.1418 88.7051 53.9682 88.7051 53.7599C88.7051 53.5515 88.6181 53.373 88.4442 53.2242C88.2704 53.0754 88.0645 53.001 87.8266 53.001C87.5887 53.001 87.3831 53.0754 87.2096 53.2242L81.367 58.2388C81.2974 58.2983 81.248 58.3628 81.2188 58.4323C81.1896 58.5017 81.1752 58.5761 81.1757 58.6555C81.1757 58.7348 81.1903 58.8092 81.2195 58.8787C81.2487 58.9481 81.2979 59.0126 81.367 59.0721L87.227 64.0868C87.3893 64.2257 87.5894 64.2951 87.8273 64.2951C88.0652 64.2951 88.2708 64.2207 88.4442 64.0719Z" fill="#32AAEE"/>
</g>
</g>
</g>
</svg>
