<svg width="192" height="192" viewBox="0 0 192 192" fill="none" xmlns="http://www.w3.org/2000/svg">
<g id="1">
<g id="Group 4">
<g id="Union">
<path fill-rule="evenodd" clip-rule="evenodd" d="M152.754 86.0176C152.999 86.4989 152.999 87.1289 152.999 88.3891V129.023C152.999 130.283 152.999 130.913 152.754 131.394C152.538 131.818 152.194 132.162 151.771 132.378C151.289 132.623 150.659 132.623 149.399 132.623H144.254L141.339 138.602L135.509 132.623H69.1526C67.8925 132.623 67.2625 132.623 66.7812 132.378C66.3578 132.162 66.0136 131.818 65.7979 131.394C65.5526 130.913 65.5526 130.283 65.5526 129.023V88.3891C65.5526 87.1289 65.5526 86.4989 65.7979 86.0176C66.0136 85.5942 66.3578 85.25 66.7812 85.0343C67.2625 84.7891 67.8925 84.7891 69.1526 84.7891H149.399C150.659 84.7891 151.289 84.7891 151.771 85.0343C152.194 85.25 152.538 85.5942 152.754 86.0176Z" fill="#E9F7FF"/>
<path d="M152.754 86.0176L151.751 86.5283H151.751L152.754 86.0176ZM152.754 131.394L153.756 131.905L153.756 131.905L152.754 131.394ZM151.771 132.378L151.26 131.375L151.26 131.375L151.771 132.378ZM144.254 132.623L143.243 132.13C143.431 131.743 143.824 131.498 144.254 131.498V132.623ZM141.339 138.602L142.35 139.095C142.19 139.424 141.879 139.655 141.518 139.713C141.156 139.771 140.789 139.65 140.533 139.388L141.339 138.602ZM135.509 132.623V131.498C135.812 131.498 136.103 131.62 136.314 131.838L135.509 132.623ZM66.7812 132.378L67.2919 131.375L67.2919 131.375L66.7812 132.378ZM65.7979 131.394L64.7955 131.905L64.7955 131.905L65.7979 131.394ZM65.7979 86.0176L64.7955 85.5069L64.7955 85.5068L65.7979 86.0176ZM66.7812 85.0343L67.2919 86.0367L67.2919 86.0367L66.7812 85.0343ZM151.771 85.0343L151.26 86.0367L151.771 85.0343ZM151.874 88.3891C151.874 87.7404 151.873 87.3216 151.847 87.0029C151.822 86.6973 151.78 86.5839 151.751 86.5283L153.756 85.5068C153.973 85.9325 154.053 86.3749 154.09 86.8197C154.125 87.2513 154.124 87.7776 154.124 88.3891H151.874ZM151.874 129.023V88.3891H154.124V129.023H151.874ZM151.751 130.884C151.78 130.828 151.822 130.715 151.847 130.409C151.873 130.09 151.874 129.672 151.874 129.023H154.124C154.124 129.634 154.125 130.161 154.09 130.592C154.053 131.037 153.973 131.48 153.756 131.905L151.751 130.884ZM151.26 131.375C151.471 131.268 151.644 131.095 151.751 130.884L153.756 131.905C153.433 132.54 152.916 133.057 152.281 133.38L151.26 131.375ZM149.399 131.498C150.048 131.498 150.466 131.497 150.785 131.471C151.091 131.446 151.204 131.404 151.26 131.375L152.281 133.38C151.856 133.597 151.413 133.677 150.968 133.714C150.537 133.749 150.011 133.748 149.399 133.748V131.498ZM144.254 131.498H149.399V133.748H144.254V131.498ZM140.328 138.109L143.243 132.13L145.265 133.116L142.35 139.095L140.328 138.109ZM136.314 131.838L142.144 137.817L140.533 139.388L134.703 133.408L136.314 131.838ZM69.1526 131.498H135.509V133.748H69.1526V131.498ZM67.2919 131.375C67.3475 131.404 67.4608 131.446 67.7664 131.471C68.0852 131.497 68.504 131.498 69.1526 131.498V133.748C68.5411 133.748 68.0149 133.749 67.5832 133.714C67.1385 133.677 66.6961 133.597 66.2704 133.38L67.2919 131.375ZM66.8002 130.884C66.9081 131.095 67.0802 131.268 67.2919 131.375L66.2704 133.38C65.6354 133.057 65.1191 132.54 64.7955 131.905L66.8002 130.884ZM66.6776 129.023C66.6776 129.672 66.6785 130.09 66.7046 130.409C66.7295 130.715 66.7719 130.828 66.8003 130.884L64.7955 131.905C64.5786 131.48 64.4984 131.037 64.462 130.592C64.4268 130.161 64.4276 129.634 64.4276 129.023H66.6776ZM66.6776 88.3891V129.023H64.4276V88.3891H66.6776ZM66.8003 86.5283C66.7719 86.5839 66.7295 86.6973 66.7046 87.0029C66.6785 87.3216 66.6776 87.7404 66.6776 88.3891H64.4276C64.4276 87.7776 64.4268 87.2513 64.462 86.8197C64.4984 86.3749 64.5786 85.9325 64.7955 85.5069L66.8003 86.5283ZM67.2919 86.0367C67.0802 86.1445 66.9081 86.3166 66.8002 86.5283L64.7955 85.5068C65.1191 84.8718 65.6354 84.3555 66.2704 84.0319L67.2919 86.0367ZM69.1526 85.9141C68.504 85.9141 68.0852 85.9149 67.7664 85.941C67.4608 85.966 67.3475 86.0083 67.2919 86.0367L66.2704 84.0319C66.6961 83.815 67.1385 83.7348 67.5832 83.6985C68.0149 83.6632 68.5411 83.6641 69.1526 83.6641V85.9141ZM149.399 85.9141H69.1526V83.6641H149.399V85.9141ZM151.26 86.0367C151.204 86.0083 151.091 85.966 150.785 85.941C150.466 85.9149 150.048 85.9141 149.399 85.9141V83.6641C150.011 83.6641 150.537 83.6632 150.968 83.6985C151.413 83.7348 151.856 83.815 152.281 84.0319L151.26 86.0367ZM151.751 86.5283C151.644 86.3166 151.471 86.1445 151.26 86.0367L152.281 84.0319C152.916 84.3555 153.433 84.8718 153.756 85.5068L151.751 86.5283Z" fill="#007BC2"/>
</g>
<g id="Group 3">
<g id="Union_2">
<path fill-rule="evenodd" clip-rule="evenodd" d="M38.8907 59.1108C38.6455 59.5921 38.6455 60.2222 38.6455 61.4823V121.549C38.6455 122.809 38.6455 123.439 38.8907 123.92C39.1065 124.344 39.4507 124.688 39.874 124.904C40.3553 125.149 40.9854 125.149 42.2455 125.149H48.7354L52.0987 131.875L58.8253 125.149H142.672C143.932 125.149 144.562 125.149 145.043 124.904C145.467 124.688 145.811 124.344 146.027 123.92C146.272 123.439 146.272 122.809 146.272 121.549V61.4823C146.272 60.2222 146.272 59.5921 146.027 59.1108C145.811 58.6875 145.467 58.3433 145.043 58.1276C144.562 57.8823 143.932 57.8823 142.672 57.8823H42.2455C40.9854 57.8823 40.3553 57.8823 39.874 58.1276C39.4507 58.3433 39.1065 58.6875 38.8907 59.1108Z" fill="#E9F7FF"/>
<path d="M38.8907 59.1108L39.8931 59.6216L38.8907 59.1108ZM38.8907 123.92L37.8884 124.431H37.8884L38.8907 123.92ZM39.874 124.904L40.3848 123.901H40.3848L39.874 124.904ZM48.7354 125.149L49.7417 124.646C49.5511 124.265 49.1615 124.024 48.7354 124.024V125.149ZM52.0987 131.875L51.0925 132.378C51.2542 132.702 51.5616 132.928 51.9185 132.986C52.2755 133.044 52.6385 132.927 52.8942 132.671L52.0987 131.875ZM58.8253 125.149V124.024C58.5269 124.024 58.2408 124.142 58.0298 124.353L58.8253 125.149ZM145.043 124.904L144.533 123.901L145.043 124.904ZM146.027 123.92L147.029 124.431V124.431L146.027 123.92ZM146.027 59.1108L147.029 58.6001V58.6001L146.027 59.1108ZM145.043 58.1276L145.554 57.1252L145.554 57.1252L145.043 58.1276ZM39.874 58.1276L40.3848 59.1299L39.874 58.1276ZM39.7705 61.4823C39.7705 60.8337 39.7714 60.4149 39.7974 60.0961C39.8224 59.7905 39.8648 59.6772 39.8931 59.6216L37.8884 58.6001C37.6715 59.0258 37.5912 59.4682 37.5549 59.9129C37.5196 60.3445 37.5205 60.8708 37.5205 61.4823H39.7705ZM39.7705 121.549V61.4823H37.5205V121.549H39.7705ZM39.8931 123.41C39.8648 123.354 39.8224 123.241 39.7974 122.935C39.7714 122.616 39.7705 122.197 39.7705 121.549H37.5205C37.5205 122.16 37.5196 122.687 37.5549 123.118C37.5912 123.563 37.6715 124.005 37.8884 124.431L39.8931 123.41ZM40.3848 123.901C40.1731 123.793 40.001 123.621 39.8931 123.41L37.8884 124.431C38.2119 125.066 38.7282 125.582 39.3633 125.906L40.3848 123.901ZM42.2455 124.024C41.5969 124.024 41.1781 124.023 40.8593 123.997C40.5537 123.972 40.4404 123.93 40.3848 123.901L39.3633 125.906C39.789 126.123 40.2313 126.203 40.6761 126.239C41.1077 126.275 41.634 126.274 42.2455 126.274V124.024ZM48.7354 124.024H42.2455V126.274H48.7354V124.024ZM53.1049 131.372L49.7417 124.646L47.7292 125.652L51.0925 132.378L53.1049 131.372ZM58.0298 124.353L51.3032 131.08L52.8942 132.671L59.6208 125.944L58.0298 124.353ZM142.672 124.024H58.8253V126.274H142.672V124.024ZM144.533 123.901C144.477 123.93 144.364 123.972 144.058 123.997C143.739 124.023 143.32 124.024 142.672 124.024V126.274C143.283 126.274 143.81 126.275 144.241 126.239C144.686 126.203 145.128 126.123 145.554 125.906L144.533 123.901ZM145.024 123.41C144.916 123.621 144.744 123.793 144.533 123.901L145.554 125.906C146.189 125.582 146.705 125.066 147.029 124.431L145.024 123.41ZM145.147 121.549C145.147 122.197 145.146 122.616 145.12 122.935C145.095 123.241 145.053 123.354 145.024 123.41L147.029 124.431C147.246 124.005 147.326 123.563 147.362 123.118C147.398 122.687 147.397 122.16 147.397 121.549H145.147ZM145.147 61.4823V121.549H147.397V61.4823H145.147ZM145.024 59.6216C145.053 59.6772 145.095 59.7905 145.12 60.0961C145.146 60.4149 145.147 60.8337 145.147 61.4823H147.397C147.397 60.8708 147.398 60.3445 147.362 59.9129C147.326 59.4682 147.246 59.0258 147.029 58.6001L145.024 59.6216ZM144.533 59.1299C144.744 59.2378 144.916 59.4099 145.024 59.6216L147.029 58.6001C146.705 57.9651 146.189 57.4487 145.554 57.1252L144.533 59.1299ZM142.672 59.0073C143.32 59.0073 143.739 59.0082 144.058 59.0342C144.364 59.0592 144.477 59.1016 144.533 59.1299L145.554 57.1252C145.128 56.9083 144.686 56.8281 144.241 56.7917C143.81 56.7564 143.283 56.7573 142.672 56.7573V59.0073ZM42.2455 59.0073H142.672V56.7573H42.2455V59.0073ZM40.3848 59.1299C40.4404 59.1016 40.5537 59.0592 40.8593 59.0342C41.1781 59.0082 41.5969 59.0073 42.2455 59.0073V56.7573C41.634 56.7573 41.1077 56.7564 40.6761 56.7917C40.2313 56.8281 39.789 56.9083 39.3633 57.1252L40.3848 59.1299ZM39.8931 59.6216C40.001 59.4099 40.1731 59.2378 40.3848 59.1299L39.3633 57.1252C38.7282 57.4487 38.2119 57.9651 37.8884 58.6001L39.8931 59.6216Z" fill="#007BC2"/>
</g>
<line id="Line 1" x1="38.6455" y1="77.612" x2="146.272" y2="77.612" stroke="#007BC2" stroke-width="0.9"/>
<circle id="Ellipse 1" cx="48.7354" cy="67.9722" r="3.36332" fill="#007BC2"/>
<circle id="Ellipse 2" cx="62.1885" cy="67.9722" r="3.36332" fill="#007BC2"/>
<circle id="Ellipse 3" cx="75.6416" cy="67.9722" r="3.36332" fill="#007BC2"/>
<g id="Group 2">
<circle id="Ellipse 4" cx="58.8254" cy="98.2419" r="13.4533" fill="#00A2FF"/>
<path id="Vector 2" d="M58.8252 98.2419V84.7886C69.5878 84.7886 72.2785 93.7574 72.2785 98.2419H58.8252Z" fill="#007BC2" stroke="#007BC2" stroke-width="2.25"/>
</g>
<g id="Group 1">
<path id="Vector 3" d="M85.7334 115.059L99.1867 102.353L105.913 109.859L119.367 96L126.093 99.1765" stroke="#007BC2" stroke-width="2.25" stroke-linecap="round" stroke-linejoin="round"/>
<path id="Vector 4" d="M85.7334 105.529L99.1867 95.9998L105.913 100.33L119.367 83.2939H129.457" stroke="#007BC2" stroke-width="2.25" stroke-linecap="round" stroke-linejoin="round"/>
</g>
</g>
</g>
</g>
</svg>
